<?xml version="1.0" encoding="UTF-8" standalone="no"?>
<!DOCTYPE svg PUBLIC "-//W3C//DTD SVG 1.1//EN" "http://www.w3.org/Graphics/SVG/1.1/DTD/svg11.dtd">
<svg width="100%" height="100%" viewBox="0 0 190 50" version="1.1" xmlns="http://www.w3.org/2000/svg" xmlns:xlink="http://www.w3.org/1999/xlink" xml:space="preserve" style="fill-rule:evenodd;clip-rule:evenodd;stroke-linejoin:round;stroke-miterlimit:1.41421;">
    <g transform="matrix(0.0220848,0,0,0.0220848,20.8388,-6.59865)">
        <path d="M5737.83,1994.08L5776.12,1942.48C5780.17,1935.81 5784.79,1930.84 5790.04,1927.57C5794.5,1924.95 5798.67,1923.64 5802.58,1923.64C5803.12,1923.64 5803.71,1923.78 5804.38,1924.04C5808.79,1924.3 5812.92,1925.34 5816.71,1927.17C5820.25,1929 5823.21,1931.36 5825.54,1934.24C5827.67,1937.38 5828.71,1940.12 5828.71,1942.48L5761.79,2015.86C5786.25,2042.55 5798.5,2073.35 5798.5,2108.28C5798.5,2150 5782.79,2184.93 5751.38,2213.05C5719.75,2241.57 5680.54,2255.83 5633.88,2255.83C5628.25,2255.83 5618.96,2255.23 5606,2254.06C5596.21,2260.08 5591.29,2268.97 5591.29,2280.74C5591.29,2285.19 5592.08,2289.18 5593.62,2292.71C5595.21,2296.11 5598,2299.18 5602.08,2301.93C5606,2305.07 5609.92,2307.62 5613.83,2309.58C5617.62,2311.55 5623.79,2313.64 5632.29,2315.86C5640.54,2318.22 5647.46,2319.98 5653.08,2321.16C5658.58,2322.34 5667.29,2324.43 5679.17,2327.44C5691.33,2330.19 5700.96,2332.41 5708.04,2334.11C5795.12,2353.99 5838.5,2390.03 5838.12,2442.22C5838.12,2480.68 5820.12,2510.3 5784.17,2531.1C5747.92,2552.03 5697.58,2562.5 5633.08,2562.5C5505.67,2562.5 5441.96,2525.41 5441.96,2451.25C5441.96,2420.77 5455.38,2395 5482.21,2373.94C5509,2352.88 5542.54,2338.55 5582.83,2330.97C5561.92,2321.43 5551.46,2307.03 5551.46,2287.81C5551.46,2271.06 5559.25,2257.33 5574.79,2246.6C5544.46,2236.53 5519.92,2219.2 5501.21,2194.61C5482.67,2170.02 5473.38,2142.41 5473.38,2111.8C5473.38,2070.08 5488.88,2034.7 5519.88,2005.66C5550.88,1976.75 5589.46,1962.3 5635.62,1962.3C5675.12,1962.3 5709.21,1972.89 5737.83,1994.08ZM5695.46,2369.23C5689.71,2367.79 5680.25,2365.57 5667.04,2362.56C5653.67,2359.29 5643.62,2357 5636.79,2355.7C5609.58,2357.65 5584.54,2362.56 5561.67,2370.41C5538.5,2378.65 5519.79,2389.83 5505.54,2403.96C5490.75,2418.35 5483.38,2434.11 5483.38,2451.25C5483.38,2475.97 5496.38,2495 5522.42,2508.34C5548.33,2521.69 5585.46,2528.36 5633.88,2528.36C5685.12,2528.36 5725.17,2521.1 5753.92,2506.58C5782.46,2492.19 5796.71,2471.46 5796.71,2444.38C5796.71,2434.31 5794.04,2425.02 5788.67,2416.52C5783.04,2408.41 5775.25,2401.35 5765.33,2395.33C5755.25,2389.44 5744.71,2384.4 5733.75,2380.22C5722.75,2376.3 5710,2372.63 5695.46,2369.23ZM6146.04,2037.45C6146.04,2042.55 6144.21,2047.05 6140.54,2050.98C6136.75,2054.51 6133.08,2057 6129.54,2058.44C6125.88,2059.88 6123.71,2060.07 6123.08,2059.03C6112.33,2040.71 6095.88,2025.74 6073.62,2014.09C6051.12,2002.59 6025.75,1996.83 5997.5,1996.83C5962.58,1996.83 5935,2004.22 5914.71,2019C5894.17,2033.65 5883.92,2052.68 5883.92,2076.1C5883.92,2084.86 5884.96,2092.84 5887.04,2100.03C5889.79,2106.71 5893.92,2112.72 5899.42,2118.08C5905.04,2123.19 5910.67,2127.5 5916.29,2131.04C5922.29,2134.7 5930.71,2138.03 5941.58,2141.04C5953.08,2143.79 5962.96,2146.15 5971.21,2148.1C5979.71,2150.33 5991.42,2153.21 6006.33,2156.74C6016.92,2159.75 6024.83,2161.91 6030.08,2163.21C6035.71,2164.39 6043.5,2166.42 6053.42,2169.3C6063.62,2171.78 6071.54,2174.07 6077.17,2176.16C6082.92,2178.39 6090,2181.13 6098.33,2184.4C6106.71,2187.8 6113.33,2191.33 6118.17,2195C6122.88,2198.4 6128.17,2202.78 6134.08,2208.15C6139.96,2213.25 6144.42,2218.74 6147.42,2224.63C6150.42,2230.51 6152.83,2237.32 6154.67,2245.03C6157,2252.49 6158.21,2260.46 6158.21,2268.97C6158.21,2304.68 6143.67,2333.58 6114.62,2355.7C6085.33,2377.93 6046.29,2389.05 5997.5,2389.05C5964,2389.05 5934.83,2384.54 5910,2375.51C5885.12,2366.88 5865.79,2355.63 5851.92,2341.77C5838.46,2328.29 5831.71,2317.04 5831.71,2308.01C5831.71,2302.92 5833.54,2298.33 5837.21,2294.28C5841,2290.61 5844.71,2288.13 5848.38,2286.83C5851.79,2285.39 5853.88,2284.93 5854.67,2285.45C5868.12,2306.25 5887.04,2322.99 5911.38,2335.68C5935.42,2348.5 5964.75,2354.91 5999.25,2354.91C6035.62,2354.91 6064.33,2347.38 6085.42,2332.35C6106.33,2317.83 6116.79,2298.66 6116.79,2274.85C6116.79,2265.83 6115.62,2257.85 6113.25,2250.92C6110.92,2243.46 6106.58,2237.12 6100.33,2231.89C6093.79,2226.53 6087.88,2222.08 6082.67,2218.55C6076.92,2214.88 6068,2211.42 6055.96,2208.15C6043.67,2204.48 6033.75,2201.8 6026.17,2200.1C6018.71,2198.27 6006.46,2195.46 5989.46,2191.66C5979.12,2189.18 5970.67,2187.22 5964.17,2185.78C5957.88,2184.07 5949.42,2182.12 5938.83,2179.89C5928.38,2177.41 5920,2174.66 5913.71,2171.65C5907.58,2168.9 5900.38,2165.44 5892.12,2161.25C5883.75,2157.32 5877.17,2152.81 5872.33,2147.72C5867.21,2142.61 5862.25,2136.86 5857.42,2130.45C5852.71,2123.91 5849.38,2116.32 5847.42,2107.68C5845.04,2099.45 5843.88,2090.36 5843.88,2080.41C5843.88,2045.49 5858.12,2017.04 5886.67,1995.06C5914.92,1973.22 5951.83,1962.3 5997.5,1962.3C6055.96,1962.3 6100.25,1977.14 6130.33,2006.83C6140.79,2017.3 6146.04,2027.5 6146.04,2037.45ZM5100.25,2070.21C5096.29,2066.29 5094.33,2061.12 5094.33,2054.71C5094.33,2050.13 5096.46,2044.05 5100.62,2036.46C5104.96,2028.48 5110.62,2021.29 5117.71,2014.88C5152.38,1979.83 5199.71,1962.3 5259.75,1962.3C5311.04,1962.3 5351.25,1976.42 5380.42,2004.67C5409.58,2032.8 5424.17,2071.65 5424.17,2121.22L5424.17,2378.84C5424.17,2379.24 5423.54,2379.83 5422.21,2380.61C5420.62,2381.13 5418.62,2381.72 5416.12,2382.38C5413.62,2382.9 5411.29,2383.16 5409.08,2383.16C5391.54,2383.16 5382.79,2369.36 5382.79,2341.77L5382.79,2298.99C5369.17,2326.07 5347.92,2347.91 5319,2364.53C5289.96,2380.87 5256.79,2389.05 5219.54,2389.05C5176.12,2389.05 5141.75,2378.91 5116.54,2358.64C5091,2338.36 5078.25,2311.02 5078.25,2276.62C5078.25,2230.71 5101.67,2197.35 5148.5,2176.55C5195.58,2155.37 5270.75,2143.99 5373.96,2142.41L5382.79,2142.41L5382.79,2121.81C5382.79,2083.88 5371.67,2054.25 5349.42,2032.93C5327.46,2011.87 5296.62,2001.34 5257,2001.34C5223.12,2001.34 5194.29,2008.4 5170.46,2022.53C5146.79,2036.66 5129.12,2055.43 5117.5,2078.84C5115.92,2078.84 5113.79,2078.39 5111.04,2077.47C5108,2076.55 5104.42,2074.13 5100.25,2070.21ZM3762.13,2355.91C3763.58,2356.2 3765.03,2356.42 3766.49,2356.57C3767.94,2356.71 3769.39,2356.78 3770.84,2356.78C3773.75,2356.78 3776.87,2356.5 3780.21,2355.91C3783.54,2355.33 3785.94,2354.75 3787.4,2354.17C3788.85,2353.59 3790.37,2352.35 3791.97,2350.47C3793.56,2348.58 3795.6,2345.24 3798.07,2340.45C3800.53,2335.66 3803.65,2328.98 3807.43,2320.41C3811.2,2311.84 3816,2300.3 3821.81,2285.78L3722.93,2058.83L3753.85,2058.83L3837.93,2258.34L3915.46,2058.83L3943.78,2058.83L3825.73,2351.55C3821.37,2362.3 3815.49,2370.29 3808.09,2375.52C3800.68,2380.74 3790.3,2383.36 3776.94,2383.36C3771.42,2383.36 3766.49,2382.92 3762.13,2382.05L3762.13,2355.91ZM4369.96,2383.36L4071.32,2383.36C4057.32,2383.36 4050.33,2377.21 4050.33,2364.92L4050.33,2359.03C4050.33,2355.37 4051.5,2351.9 4053.85,2348.63C4055.82,2344.84 4060.2,2338.55 4067,2329.79L4329.54,2004.67L4073.09,2004.67C4065.5,2004.67 4060.07,2003.37 4056.8,2000.75C4053.66,1998.14 4052.09,1993.95 4052.09,1988.2L4052.09,1984.08C4052.09,1978.32 4053.66,1974.2 4056.8,1971.71C4060.07,1969.09 4065.5,1967.79 4073.09,1967.79L4364.08,1967.79C4378.04,1967.79 4385.04,1973.94 4385.04,1986.23L4385.04,1989.57C4385.04,1995.06 4379.42,2004.55 4368.17,2018.02L4103.11,2346.47L4369.96,2346.47C4384.46,2346.47 4391.71,2351.9 4391.71,2362.76L4391.71,2366.88C4391.71,2377.86 4384.46,2383.36 4369.96,2383.36ZM4444.5,2383.16L4439.58,2383.16C4427.29,2383.16 4421.17,2376.55 4421.17,2363.35L4421.17,1972.7C4421.17,1972.3 4421.79,1971.85 4423.12,1971.33C4424.54,1970.4 4426.33,1969.75 4428.42,1969.36C4430.79,1968.71 4433.08,1968.38 4435.29,1968.38C4453.08,1968.38 4461.96,1982.25 4461.96,2009.98L4461.96,2045.3C4475.46,2019.92 4494.29,1999.77 4518.5,1984.86C4542.67,1969.82 4569.5,1962.3 4598.92,1962.3C4634.5,1962.3 4664.5,1971 4689,1988.39C4713.17,2005.27 4730.04,2028.62 4739.62,2058.44C4752.42,2029.14 4771.92,2005.92 4798.08,1988.78C4823.96,1971.12 4854.25,1962.3 4888.92,1962.3C4939.67,1962.3 4978.58,1977.73 5005.67,2008.6C5033,2038.95 5046.67,2082.5 5046.67,2139.27L5046.67,2363.35C5046.67,2376.55 5040.67,2383.16 5028.62,2383.16L5023.33,2383.16C5011.29,2383.16 5005.29,2376.55 5005.29,2363.35L5005.29,2141.83C5005.29,2096.57 4994.92,2061.84 4974.25,2037.64C4954,2013.44 4924.71,2001.34 4886.38,2001.34C4857.58,2001.34 4831.08,2009.78 4806.92,2026.65C4782.46,2043.66 4765,2066.94 4754.5,2096.5L4754.5,2363.35C4754.5,2376.55 4748.5,2383.16 4736.46,2383.16L4731.38,2383.16C4719.21,2383.16 4713.12,2376.55 4713.12,2363.35L4713.12,2132.02C4713.12,2090.55 4703,2058.44 4682.71,2035.68C4662.71,2012.79 4633.33,2001.34 4594.62,2001.34C4566.33,2001.34 4540.33,2009.78 4516.5,2026.65C4492.33,2043.66 4474.38,2066.68 4462.75,2095.72L4462.75,2363.35C4462.75,2376.55 4456.67,2383.16 4444.5,2383.16ZM5371.38,2175.57C5281.42,2177.15 5217.04,2185.71 5178.33,2201.28C5139.33,2216.84 5119.88,2241.96 5119.88,2276.62C5119.88,2300.95 5129.12,2320.12 5147.71,2334.11C5166.04,2347.97 5191.08,2354.91 5222.88,2354.91C5267.88,2354.91 5305.67,2341.5 5336.29,2314.69C5367.29,2287.87 5382.79,2255.03 5382.79,2216.19L5382.79,2175.57L5371.38,2175.57ZM3515.14,2285.78L3488.57,2285.78L3488.57,1967.79L3518.19,1967.79L3518.19,2106.31C3528.35,2090.93 3540.55,2078.51 3554.78,2069.07C3569,2059.63 3585.71,2054.91 3604.87,2054.91C3620.55,2054.91 3634.78,2058.25 3647.57,2064.93C3660.34,2071.62 3671.15,2080.55 3680.02,2091.72C3688.88,2102.9 3695.7,2115.54 3700.49,2129.62C3705.28,2143.71 3707.68,2158.15 3707.68,2172.96C3707.68,2188.93 3704.91,2204.04 3699.4,2218.26C3693.88,2232.5 3686.26,2244.91 3676.53,2255.51C3666.8,2266.11 3655.33,2274.53 3642.12,2280.77C3628.9,2287.01 3614.75,2290.14 3599.65,2290.14C3581.93,2290.14 3565.52,2285.64 3550.43,2276.63C3535.32,2267.64 3523.56,2256.02 3515.14,2241.79L3515.14,2285.78ZM3592.68,2264C3605.16,2264 3616.56,2261.46 3626.88,2256.38C3637.18,2251.3 3646.04,2244.47 3653.45,2235.9C3660.85,2227.34 3666.66,2217.61 3670.87,2206.72C3675.08,2195.83 3677.18,2184.58 3677.18,2172.96C3677.18,2161.06 3675.22,2149.59 3671.3,2138.55C3667.38,2127.52 3661.86,2117.71 3654.75,2109.15C3647.63,2100.58 3639.14,2093.75 3629.27,2088.67C3619.39,2083.6 3608.5,2081.05 3596.6,2081.05C3587.59,2081.05 3579.17,2082.57 3571.33,2085.62C3563.49,2088.67 3556.23,2092.81 3549.55,2098.04C3542.87,2103.27 3536.85,2109.3 3531.47,2116.12C3526.1,2122.94 3521.68,2130.13 3518.19,2137.68L3518.19,2208.25C3519.35,2216.09 3522.47,2223.43 3527.55,2230.24C3532.63,2237.07 3538.8,2242.95 3546.07,2247.89C3553.32,2252.83 3561.02,2256.75 3569.15,2259.65C3577.28,2262.55 3585.12,2264 3592.68,2264ZM5634.62,1996.83C5599.46,1996.83 5570.62,2007.36 5548.12,2028.42C5526,2049.47 5514.96,2076.82 5514.96,2110.43C5514.96,2143.4 5526.12,2170.34 5548.5,2191.27C5571,2212.46 5599.71,2223.06 5634.62,2223.06C5670.38,2223.06 5699.25,2212.46 5721.38,2191.27C5744,2170.34 5755.33,2143.4 5755.33,2110.43C5755.33,2076.82 5744.21,2049.47 5721.96,2028.42C5699.83,2007.36 5670.75,1996.83 5634.62,1996.83ZM6172.38,1964.49C6174.67,1964.49 6176.88,1964.92 6178.96,1965.78C6180.79,1966.55 6182.42,1967.7 6183.88,1969.23C6185.29,1970.56 6186.38,1972.24 6187.17,1974.25C6187.92,1976.25 6188.29,1978.46 6188.29,1980.85C6188.29,1983.05 6187.92,1985.15 6187.17,1987.16C6186.38,1989.17 6185.29,1990.85 6183.88,1992.18C6182.42,1993.72 6180.71,1994.87 6178.71,1995.63C6176.67,1996.49 6174.58,1996.92 6172.38,1996.92C6169.33,1996.92 6166.58,1996.25 6164.21,1994.92C6161.71,1993.57 6159.75,1991.71 6158.33,1989.32C6156.96,1986.83 6156.29,1984.01 6156.29,1980.85C6156.29,1978.55 6156.79,1976.4 6157.75,1974.39C6158.5,1972.38 6159.54,1970.66 6160.88,1969.23C6162.33,1967.88 6164,1966.74 6165.92,1965.78C6167.92,1964.92 6170.08,1964.49 6172.38,1964.49ZM6172.38,1966.35C6168.25,1966.35 6164.92,1967.7 6162.33,1970.37C6159.67,1973.05 6158.33,1976.55 6158.33,1980.85C6158.33,1985.06 6159.75,1988.5 6162.62,1991.18C6165.12,1993.86 6168.38,1995.2 6172.38,1995.2C6176.5,1995.2 6179.79,1993.86 6182.29,1991.18C6184.88,1988.5 6186.17,1985.06 6186.17,1980.85C6186.17,1978.75 6185.83,1976.83 6185.17,1975.11C6184.46,1973.29 6183.54,1971.71 6182.29,1970.37C6181.12,1969.13 6179.67,1968.22 6177.83,1967.65C6176.12,1966.78 6174.29,1966.35 6172.38,1966.35ZM6167.92,1989.17L6167.5,1989.17C6166.92,1989.17 6166.62,1988.79 6166.62,1988.03L6166.62,1973.67C6166.62,1973.29 6166.75,1972.9 6166.92,1972.53C6167.21,1972.33 6167.54,1972.24 6167.92,1972.24L6172.96,1972.24C6174.88,1972.24 6176.33,1972.72 6177.42,1973.67C6178.54,1974.44 6179.12,1975.63 6179.12,1977.26C6179.12,1978.7 6178.62,1979.89 6177.71,1980.85C6176.62,1981.71 6175.17,1982.14 6173.25,1982.14L6178.96,1988.17L6178.96,1988.45C6178.79,1988.55 6178.62,1988.7 6178.54,1988.88C6178.25,1989.08 6177.96,1989.17 6177.71,1989.17C6177.21,1989.17 6176.75,1988.84 6176.25,1988.17L6171.08,1982.43L6168.92,1982.43L6168.92,1988.03C6168.92,1988.79 6168.58,1989.17 6167.92,1989.17ZM6168.92,1974.1L6168.92,1980.56L6172.96,1980.56C6174.29,1980.56 6175.25,1980.28 6175.83,1979.7C6176.58,1979.12 6176.96,1978.31 6176.96,1977.26C6176.96,1975.16 6175.54,1974.1 6172.67,1974.1L6168.92,1974.1ZM5148.49,1580.31C5206.48,1554.12 5258.87,1518.58 5301.9,1471.8C5344.93,1425.03 5378.6,1372.65 5402.92,1310.91C5427.24,1249.17 5438.47,1185.57 5438.47,1118.22C5438.47,1048.99 5427.24,985.383 5402.92,923.646C5378.6,861.908 5344.93,809.525 5301.9,762.754C5258.87,715.983 5206.48,680.437 5148.49,652.375C5088.62,624.312 5023.14,611.217 4953.92,611.217C4884.7,611.217 4819.22,624.312 4761.23,652.375C4701.36,680.437 4650.85,715.983 4607.82,762.754C4564.79,809.525 4531.11,861.908 4506.79,923.646C4482.47,985.383 4469.38,1048.99 4469.38,1118.22C4469.38,1185.57 4480.6,1249.17 4504.92,1310.91C4529.24,1372.65 4562.92,1425.03 4605.95,1471.8C4648.98,1518.58 4699.49,1554.12 4759.35,1580.31C4817.35,1608.38 4882.83,1621.47 4953.92,1621.47C5023.14,1621.47 5088.62,1608.38 5148.49,1580.31ZM110.379,1309.04C134.7,1370.78 168.375,1423.16 211.404,1469.93C254.433,1516.7 306.817,1554.12 366.683,1580.31C426.55,1608.37 492.029,1621.47 563.121,1621.47C609.892,1621.47 654.792,1615.85 697.821,1602.76C740.85,1591.53 780.138,1574.7 815.683,1552.25C851.229,1531.67 881.163,1505.48 907.354,1475.54C933.546,1447.48 954.125,1415.67 967.221,1380.13L843.746,1342.71C836.263,1365.16 823.167,1385.74 804.458,1406.32C785.75,1426.9 763.3,1443.74 737.108,1458.7C710.917,1475.54 682.854,1486.77 652.921,1496.12C621.117,1505.48 591.183,1509.22 559.379,1509.22C510.738,1509.22 465.838,1497.99 422.808,1477.41C379.779,1456.83 340.492,1428.77 308.687,1393.23C276.883,1357.68 250.692,1316.52 231.983,1267.88C213.275,1219.24 203.921,1166.85 203.921,1112.6C203.921,1056.47 213.275,1004.09 231.983,957.321C248.821,910.55 275.012,869.392 306.817,833.846C338.621,800.171 376.038,773.979 419.067,753.4C462.096,732.821 506.996,723.467 557.508,723.467C617.375,723.467 671.629,736.562 720.271,764.625C768.913,792.687 806.329,831.975 834.392,882.487L957.867,843.2C922.321,772.108 871.808,715.983 802.588,672.954C733.367,631.796 652.921,611.217 561.25,611.217C488.288,611.217 422.808,624.312 362.942,650.504C303.075,676.696 252.563,712.242 209.533,757.142C166.504,803.912 132.829,856.296 108.508,918.033C84.187,979.771 72.962,1043.38 72.962,1112.6C72.962,1181.82 86.058,1247.3 110.379,1309.04ZM3389.95,1572.83C3459.17,1541.02 3513.43,1497.99 3556.45,1440L3560.2,1516.7C3562.07,1546.63 3575.16,1569.08 3595.74,1584.05C3616.32,1599.02 3638.77,1606.5 3663.09,1606.5C3668.7,1606.5 3676.19,1606.5 3685.54,1604.63C3694.9,1604.63 3704.25,1604.63 3713.6,1602.76L3713.6,1490.51C3683.67,1490.51 3668.7,1473.67 3668.7,1438.12L3668.7,998.479C3668.7,876.875 3633.16,783.333 3563.94,714.112C3494.72,644.892 3399.3,611.217 3281.44,611.217C3215.96,611.217 3154.22,622.442 3094.36,643.021C3034.49,663.6 2972.75,695.404 2909.15,738.433L2954.05,822.621C3008.3,785.204 3060.68,757.142 3113.07,736.562C3163.58,715.983 3215.96,706.629 3268.35,706.629C3352.53,706.629 3418.01,730.95 3468.53,781.462C3517.17,831.975 3541.49,901.196 3541.49,987.254L3541.49,1075.18C3502.2,1058.35 3455.43,1047.12 3404.92,1037.77C3354.4,1028.41 3303.89,1024.67 3255.25,1024.67C3193.51,1024.67 3139.26,1032.15 3088.75,1045.25C3038.23,1060.22 2993.33,1080.8 2957.79,1106.99C2922.24,1133.18 2894.18,1164.98 2873.6,1200.53C2853.02,1237.95 2843.67,1279.1 2843.67,1324C2843.67,1363.29 2851.15,1402.58 2867.99,1438.12C2884.83,1473.67 2907.28,1505.48 2937.21,1533.54C2965.27,1561.6 3000.82,1582.18 3041.97,1597.15C3083.13,1613.98 3128.03,1621.47 3178.55,1621.47C3249.64,1621.47 3320.73,1604.63 3389.95,1572.83ZM2383.44,1602.76C2426.47,1591.53 2467.63,1574.7 2503.18,1552.25C2538.72,1531.67 2570.53,1505.48 2598.59,1475.54C2626.65,1447.48 2647.23,1413.8 2662.2,1378.26L2551.82,1348.33C2540.59,1374.52 2525.62,1398.84 2505.05,1419.42C2484.47,1441.87 2460.15,1460.58 2433.95,1475.54C2407.76,1490.51 2379.7,1501.73 2347.9,1511.09C2316.09,1520.44 2284.29,1524.18 2252.48,1524.18C2205.71,1524.18 2160.81,1514.83 2119.65,1496.12C2076.62,1479.28 2041.08,1453.09 2009.28,1421.29C1977.47,1389.48 1951.28,1350.2 1930.7,1305.3C1910.12,1262.27 1897.03,1213.62 1893.28,1161.24L2725.8,1161.24C2727.68,1157.5 2727.68,1150.02 2729.55,1140.66C2729.55,1131.31 2729.55,1120.08 2729.55,1110.73C2729.55,1043.38 2718.32,979.771 2694,919.904C2669.68,860.037 2637.88,807.654 2594.85,760.883C2551.82,714.112 2501.3,678.567 2443.31,650.504C2383.44,624.312 2317.96,611.217 2246.87,611.217C2175.78,611.217 2110.3,624.312 2052.3,650.504C1992.44,678.567 1940.05,714.112 1897.03,759.012C1854,805.783 1820.32,858.167 1796,918.033C1771.68,979.771 1758.58,1043.38 1758.58,1112.6C1758.58,1181.82 1771.68,1247.3 1796,1309.04C1820.32,1370.78 1854,1423.16 1897.03,1469.93C1940.05,1516.7 1992.44,1554.12 2052.3,1580.31C2112.17,1608.37 2177.65,1621.47 2248.74,1621.47C2295.51,1621.47 2340.41,1615.85 2383.44,1602.76ZM4104.57,298.787L4104.57,628.054L4329.07,628.054L4329.07,729.079L4104.57,729.079L4104.57,1391.35C4106.44,1426.9 4119.53,1453.09 4141.98,1469.93C4164.43,1486.77 4190.62,1496.12 4222.43,1496.12C4257.98,1496.12 4289.78,1490.51 4317.84,1477.41C4345.9,1466.19 4362.74,1458.7 4370.23,1453.09L4403.9,1555.99C4396.42,1559.73 4385.19,1565.34 4372.1,1570.95C4357.13,1576.57 4340.29,1584.05 4321.58,1589.66C4302.88,1595.28 4282.3,1600.89 4257.98,1606.5C4233.65,1612.11 4209.33,1613.98 4183.14,1613.98C4155.08,1613.98 4128.89,1610.24 4104.57,1602.76C4080.25,1595.28 4057.8,1584.05 4039.09,1567.21C4020.38,1552.25 4005.41,1533.54 3994.19,1509.22C3982.96,1484.9 3977.35,1458.7 3977.35,1426.9L3977.35,729.079L3842.65,729.079L3842.65,628.054L3977.35,628.054L3977.35,298.787L4104.57,298.787ZM6108.2,622.446C6117.56,622.446 6126.91,622.446 6132.52,624.317L6132.52,740.308C6046.46,742.179 5971.63,766.5 5908.02,811.4C5844.41,856.3 5799.51,918.038 5773.32,996.613L5773.32,1602.76L5646.1,1602.76L5646.1,628.058L5765.84,628.058L5765.84,861.913C5799.51,792.692 5844.41,736.567 5898.67,689.796C5952.92,644.896 6012.79,622.446 6076.4,622.446L6108.2,622.446ZM1627.62,622.442C1636.98,622.442 1646.33,622.442 1651.95,624.312L1651.95,740.304C1565.89,742.175 1491.05,766.496 1427.45,811.396C1363.84,856.296 1318.94,918.033 1292.75,996.608L1292.75,1602.76L1165.53,1602.76L1165.53,628.054L1285.26,628.054L1285.26,861.908C1318.94,792.687 1363.84,736.562 1418.09,689.792C1472.35,644.892 1532.21,622.442 1595.82,622.442L1627.62,622.442ZM3103.71,1505.48C3073.78,1492.38 3049.46,1477.41 3028.88,1456.83C3008.3,1436.25 2991.46,1413.8 2982.11,1389.48C2972.75,1365.16 2967.14,1338.97 2967.14,1312.78C2967.14,1247.3 2995.2,1196.79 3053.2,1159.37C3109.33,1123.83 3182.29,1105.12 3273.96,1105.12C3316.99,1105.12 3361.89,1108.86 3408.66,1118.21C3455.43,1127.57 3498.46,1138.79 3541.49,1155.63L3541.49,1314.65C3541.49,1325.88 3537.75,1337.1 3532.13,1350.2C3526.52,1363.29 3519.04,1376.39 3509.68,1387.61C3477.88,1430.64 3432.98,1462.45 3378.72,1486.77C3322.6,1511.09 3266.47,1524.18 3210.35,1524.18C3169.19,1524.18 3133.65,1518.57 3103.71,1505.48ZM4628.4,964.804C4647.1,918.033 4673.3,875.004 4705.1,839.458C4736.9,803.912 4774.32,773.979 4817.35,753.4C4860.38,732.821 4905.28,723.467 4953.92,723.467C5002.56,723.467 5047.46,732.821 5090.49,753.4C5133.52,773.979 5170.94,802.042 5202.74,837.587C5234.55,873.133 5260.74,916.162 5279.45,962.933C5298.15,1011.58 5307.51,1062.09 5307.51,1116.35C5307.51,1170.6 5298.15,1222.98 5279.45,1269.75C5260.74,1316.53 5234.55,1357.68 5202.74,1393.23C5170.94,1428.78 5133.52,1456.84 5090.49,1477.42C5047.46,1498 5000.69,1509.22 4952.05,1509.22C4903.41,1509.22 4858.51,1499.87 4815.48,1479.29C4772.45,1458.71 4735.03,1430.65 4703.23,1395.1C4671.43,1359.55 4645.23,1318.4 4628.4,1271.62C4609.69,1224.85 4600.33,1174.34 4600.33,1120.09C4600.33,1065.83 4609.69,1013.45 4628.4,964.804ZM2607.94,1063.96C2604.2,1011.57 2592.97,962.933 2572.4,919.904C2551.82,876.875 2525.62,841.329 2493.82,809.525C2462.02,777.721 2424.6,753.4 2381.57,736.562C2338.54,719.725 2293.64,710.371 2246.87,710.371C2200.1,710.371 2155.2,719.725 2112.17,736.562C2069.14,753.4 2033.6,777.721 2001.79,809.525C1969.99,841.329 1943.8,878.746 1925.09,921.775C1904.51,964.804 1893.28,1013.45 1889.54,1063.96L2607.94,1063.96ZM6468.5,759.704L6439.5,759.704L6450.67,608.025L6495.83,608.025L6522.04,682.188C6525.38,693.9 6528.17,705.054 6532.08,720.663L6532.62,720.663C6536.54,706.729 6539.88,693.9 6543.21,682.746L6569.42,608.025L6612.92,608.025L6624.62,759.704L6594.5,759.704L6588.96,670.479C6588.38,658.767 6588.38,644.271 6587.83,628.1L6586.17,628.1C6582.25,641.484 6577.79,659.325 6573.33,673.263L6546,757.467L6514.79,757.467L6487.46,671.038C6484.67,659.325 6480.21,641.484 6476.88,628.1L6475.21,628.1C6475.21,642.038 6474.62,656.542 6474.08,670.479L6468.5,759.704ZM6430.58,633.117L6382.08,633.117L6382.08,759.704L6351.96,759.704L6351.96,633.117L6303.46,633.117L6303.46,608.025L6430.58,608.025L6430.58,633.117Z" style="fill:white;"/>
    </g>
</svg>