<?xml version="1.0" encoding="UTF-8" standalone="no"?>
<!DOCTYPE svg PUBLIC "-//W3C//DTD SVG 1.1//EN" "http://www.w3.org/Graphics/SVG/1.1/DTD/svg11.dtd">
<svg width="100%" height="100%" viewBox="0 0 5450 1629" version="1.1" xmlns="http://www.w3.org/2000/svg" xmlns:xlink="http://www.w3.org/1999/xlink" xml:space="preserve" style="fill-rule:evenodd;clip-rule:evenodd;stroke-linejoin:round;stroke-miterlimit:1.41421;">
    <g transform="matrix(1,0,0,1,0,-0.775019)">
        <g transform="matrix(4.16667,0,0,4.16667,0,0)">
            <g transform="matrix(0.24,0,0,0.24,0,0)">
                <path d="M4301.37,180.321L4398.88,48.788C4409.21,31.783 4421.08,19.113 4434.38,10.779C4445.75,4.112 4456.42,0.775 4466.42,0.775C4467.75,0.775 4469.25,1.112 4470.92,1.779C4482.25,2.446 4492.75,5.112 4502.42,9.779C4511.42,14.45 4518.92,20.454 4524.92,27.783C4530.25,35.787 4532.92,42.783 4532.92,48.788L4362.38,235.833C4424.71,303.85 4455.92,382.371 4455.92,471.387C4455.92,577.742 4415.92,666.762 4335.88,738.454C4255.21,811.138 4155.33,847.479 4036.3,847.479C4021.97,847.479 3998.3,845.979 3965.29,842.975C3940.28,858.317 3927.78,880.987 3927.78,910.996C3927.78,922.329 3929.77,932.5 3933.78,941.5C3937.78,950.171 3944.95,958 3955.28,965.004C3965.29,973.004 3975.29,979.512 3985.29,984.513C3994.96,989.513 4010.63,994.85 4032.3,1000.51C4053.31,1006.52 4070.98,1011.02 4085.32,1014.02C4099.31,1017.02 4121.49,1022.35 4151.83,1030.02C4182.83,1037.03 4207.33,1042.69 4225.33,1047.03C4447.42,1097.7 4557.92,1189.56 4556.92,1322.59C4556.92,1420.61 4511.08,1496.13 4419.38,1549.15C4327.04,1602.49 4198.67,1629.17 4034.3,1629.17C3709.55,1629.17 3547.18,1534.64 3547.18,1345.59C3547.18,1267.91 3581.36,1202.23 3649.7,1148.54C3718.07,1094.87 3803.58,1058.35 3906.27,1039.03C3852.93,1014.68 3826.25,978.008 3826.25,929C3826.25,886.321 3846.09,851.308 3885.77,823.975C3808.42,798.304 3745.9,754.121 3698.22,691.438C3650.88,628.758 3627.2,558.408 3627.2,480.387C3627.2,374.033 3666.71,283.846 3745.73,209.825C3824.75,136.142 3923.11,99.304 4040.8,99.304C4141.5,99.304 4228.33,126.308 4301.37,180.321ZM4193.33,1136.55C4178.67,1132.88 4154.49,1127.21 4120.82,1119.54C4086.81,1111.2 4061.14,1105.37 4043.8,1102.04C3974.45,1107.04 3910.61,1119.54 3852.25,1139.55C3793.25,1160.55 3745.57,1189.06 3709.22,1225.07C3671.55,1261.75 3652.72,1301.92 3652.72,1345.59C3652.72,1408.6 3685.89,1457.12 3752.23,1491.12C3818.25,1525.14 3912.94,1542.15 4036.3,1542.15C4167,1542.15 4269.04,1523.63 4342.38,1486.63C4415.04,1449.95 4451.42,1397.11 4451.42,1328.09C4451.42,1302.42 4444.58,1278.74 4430.92,1257.08C4416.54,1236.4 4396.71,1218.4 4371.38,1203.06C4345.71,1188.05 4318.88,1175.22 4290.88,1164.55C4262.88,1154.55 4230.33,1145.22 4193.33,1136.55ZM2676.14,374.367C2666.14,364.367 2661.14,351.196 2661.14,334.858C2661.14,323.192 2666.46,307.688 2677.13,288.346C2688.14,268.012 2702.64,249.667 2720.65,233.333C2809,143.979 2929.7,99.304 3082.72,99.304C3213.43,99.304 3315.95,135.308 3390.3,207.325C3464.65,279.013 3501.83,378.033 3501.83,504.4L3501.83,1161.05C3501.83,1162.06 3500.16,1163.55 3496.83,1165.55C3492.83,1166.89 3487.65,1168.38 3481.33,1170.05C3474.98,1171.39 3468.99,1172.05 3463.33,1172.05C3418.65,1172.05 3396.31,1136.88 3396.31,1066.53L3396.31,957.504C3361.63,1026.52 3307.45,1082.2 3233.77,1124.55C3159.75,1166.22 3075.22,1187.06 2980.2,1187.06C2869.51,1187.06 2781.99,1161.21 2717.65,1109.54C2652.63,1057.86 2620.12,988.175 2620.12,900.483C2620.12,783.463 2679.8,698.446 2799.16,645.425C2919.19,591.417 3110.74,562.413 3373.8,558.408L3396.31,558.408L3396.31,505.896C3396.31,409.204 3367.96,333.687 3311.28,279.346C3255.27,225.667 3176.75,198.821 3075.73,198.821C2989.37,198.821 2915.86,216.833 2855.17,252.837C2794.83,288.846 2749.82,336.692 2720.15,396.371C2716.14,396.371 2710.64,395.204 2703.65,392.871C2695.97,390.538 2686.8,384.371 2676.14,374.367ZM5341.79,290.846C5341.79,303.85 5337.12,315.35 5327.79,325.35C5318.12,334.363 5308.79,340.692 5299.79,344.363C5290.46,348.029 5284.92,348.525 5283.29,345.858C5255.92,299.179 5213.92,261.008 5157.25,231.329C5099.88,201.992 5035.21,187.325 4963.21,187.325C4874.17,187.325 4803.83,206.158 4752.12,243.837C4699.79,281.175 4673.62,329.688 4673.62,389.375C4673.62,411.704 4676.29,432.046 4681.62,450.383C4688.62,467.392 4699.12,482.721 4713.12,496.392C4727.46,509.396 4741.79,520.404 4756.17,529.404C4771.5,538.737 4793,547.242 4820.67,554.908C4850,561.913 4875.17,567.912 4896.17,572.912C4917.83,578.579 4947.71,585.917 4985.71,594.917C5012.71,602.583 5032.88,608.087 5046.21,611.417C5060.54,614.425 5080.38,619.588 5105.71,626.925C5131.75,633.258 5151.92,639.096 5166.25,644.429C5180.92,650.096 5198.92,657.1 5220.25,665.433C5241.58,674.1 5258.42,683.104 5270.75,692.442C5282.79,701.112 5296.29,712.279 5311.29,725.95C5326.29,738.95 5337.62,752.95 5345.29,767.958C5352.96,782.962 5359.12,800.296 5363.79,819.971C5369.79,838.975 5372.79,859.308 5372.79,880.987C5372.79,972.008 5335.79,1045.69 5261.75,1102.04C5187.08,1158.71 5087.54,1187.06 4963.21,1187.06C4877.83,1187.06 4803.5,1175.55 4740.12,1152.55C4676.79,1130.54 4627.46,1101.88 4592.08,1066.53C4557.75,1032.19 4540.58,1003.51 4540.58,980.504C4540.58,967.504 4545.25,955.833 4554.58,945.5C4564.25,936.163 4573.79,929.829 4583.12,926.5C4591.79,922.829 4597.12,921.654 4599.12,922.996C4633.46,976 4681.62,1018.68 4743.62,1051.02C4805,1083.7 4879.67,1100.04 4967.71,1100.04C5060.38,1100.04 5133.58,1080.87 5187.25,1042.53C5240.58,1005.51 5267.25,956.675 5267.25,895.988C5267.25,872.983 5264.25,852.642 5258.25,834.979C5252.25,815.967 5241.25,799.796 5225.25,786.463C5208.58,772.792 5193.58,761.458 5180.25,752.454C5165.58,743.125 5142.92,734.283 5112.21,725.95C5080.88,716.608 5055.54,709.779 5036.21,705.442C5017.21,700.775 4986.04,693.608 4942.71,683.938C4916.33,677.604 4894.83,672.604 4878.17,668.933C4862.17,664.604 4840.67,659.604 4813.67,653.925C4787,647.596 4765.67,640.592 4749.62,632.921C4733.96,625.925 4715.62,617.096 4694.62,606.417C4673.29,596.421 4656.46,584.912 4644.12,571.913C4631.12,558.908 4618.46,544.238 4606.12,527.896C4594.12,511.229 4585.62,491.896 4580.62,469.883C4574.58,448.879 4571.58,425.717 4571.58,400.371C4571.58,311.354 4607.96,238.833 4680.62,182.821C4752.67,127.146 4846.83,99.304 4963.21,99.304C5112.21,99.304 5225.08,137.15 5301.79,212.825C5328.46,239.504 5341.79,265.512 5341.79,290.846ZM134.533,1078.53L814.696,1078.53C851.7,1078.53 870.204,1092.37 870.204,1120.04L870.204,1130.54C870.204,1158.55 851.7,1172.55 814.696,1172.55L53.513,1172.55C17.833,1172.55 0,1156.89 0,1125.54L0,1110.54C0,1101.2 3,1092.37 8.996,1084.04C14,1074.37 25.171,1058.35 42.508,1036.02L711.667,207.325L58.017,207.325C38.675,207.325 24.837,203.992 16.5,197.329C8.5,190.658 4.504,179.992 4.504,165.317L4.504,154.817C4.504,140.146 8.5,129.646 16.5,123.313C24.837,116.633 38.675,113.304 58.017,113.304L799.692,113.304C835.367,113.304 853.204,128.975 853.204,160.313L853.204,168.821C853.204,182.821 838.862,206.992 810.196,241.329L134.533,1078.53ZM1004.74,1172.05L992.237,1172.05C960.896,1172.05 945.221,1155.22 945.221,1121.55L945.221,125.808C945.221,124.808 946.896,123.638 950.225,122.308C953.892,119.971 958.396,118.304 963.729,117.304C969.733,115.637 975.562,114.804 981.233,114.804C1026.58,114.804 1049.25,150.146 1049.25,220.829L1049.25,310.854C1083.59,246.171 1131.6,194.825 1193.28,156.817C1254.97,118.471 1323.32,99.304 1398.33,99.304C1489.02,99.304 1565.54,121.471 1627.89,165.821C1689.57,208.829 1732.58,268.346 1756.91,344.363C1789.59,269.675 1839.27,210.492 1905.95,166.821C1971.97,121.808 2049.15,99.304 2137.51,99.304C2266.87,99.304 2366.07,138.642 2435.08,217.329C2504.77,294.683 2539.6,405.708 2539.6,550.404L2539.6,1121.55C2539.6,1155.22 2524.26,1172.05 2493.6,1172.05L2480.09,1172.05C2449.41,1172.05 2434.08,1155.22 2434.08,1121.55L2434.08,556.912C2434.08,441.55 2407.74,353.029 2355.06,291.342C2303.38,229.671 2228.7,198.821 2131.01,198.821C2057.65,198.821 1990.14,220.325 1928.46,263.337C1866.11,306.683 1821.6,366.025 1794.92,441.379L1794.92,1121.55C1794.92,1155.22 1779.59,1172.05 1748.92,1172.05L1735.92,1172.05C1704.9,1172.05 1689.4,1155.22 1689.4,1121.55L1689.4,531.904C1689.4,426.204 1663.56,344.363 1611.88,286.35C1560.87,228 1486.02,198.821 1387.33,198.821C1315.31,198.821 1248.96,220.325 1188.28,263.337C1126.6,306.683 1080.92,365.358 1051.25,439.383L1051.25,1121.55C1051.25,1155.22 1035.75,1172.05 1004.74,1172.05ZM3396.31,642.925L3367.3,642.925C3137.9,646.933 2973.87,668.767 2875.18,708.442C2775.82,748.125 2726.15,812.137 2726.15,900.483C2726.15,962.504 2749.82,1011.35 2797.16,1047.03C2843.84,1082.37 2907.69,1100.04 2988.71,1100.04C3103.41,1100.04 3199.76,1065.86 3277.77,997.512C3356.8,929.167 3396.31,845.471 3396.31,746.45L3396.31,642.925ZM4038.3,187.325C3948.62,187.325 3875.1,214.162 3817.75,267.842C3761.4,321.525 3733.23,391.2 3733.23,476.888C3733.23,560.908 3761.73,629.592 3818.75,682.937C3876.1,736.95 3949.28,763.954 4038.3,763.954C4129.32,763.954 4203,736.95 4259.33,682.937C4317.04,629.592 4345.88,560.908 4345.88,476.888C4345.88,391.2 4317.54,321.525 4260.88,267.842C4204.5,214.162 4130.33,187.325 4038.3,187.325ZM5408.92,104.888C5414.79,104.888 5420.38,105.988 5425.75,108.179C5430.42,110.133 5434.54,113.058 5438.21,116.963C5441.88,120.371 5444.67,124.646 5446.62,129.758C5448.58,134.883 5449.54,140.496 5449.54,146.596C5449.54,152.204 5448.58,157.567 5446.62,162.679C5444.67,167.804 5441.88,172.075 5438.21,175.488C5434.54,179.388 5430.17,182.321 5425.04,184.267C5419.92,186.463 5414.54,187.558 5408.92,187.558C5401.12,187.558 5394.17,185.854 5388.08,182.446C5381.75,179.025 5376.75,174.271 5373.08,168.175C5369.67,161.829 5367.96,154.646 5367.96,146.596C5367.96,140.738 5369.17,135.25 5371.62,130.129C5373.58,125.008 5376.25,120.621 5379.67,116.963C5383.33,113.55 5387.58,110.617 5392.46,108.179C5397.58,105.988 5403.08,104.888 5408.92,104.888ZM5408.92,109.642C5398.46,109.642 5389.92,113.058 5383.33,119.888C5376.5,126.713 5373.08,135.617 5373.08,146.596C5373.08,157.325 5376.75,166.1 5384.08,172.925C5390.42,179.754 5398.71,183.167 5408.92,183.167C5419.42,183.167 5427.83,179.754 5434.17,172.925C5440.75,166.1 5444.04,157.325 5444.04,146.596C5444.04,141.225 5443.21,136.35 5441.5,131.954C5439.79,127.325 5437.33,123.3 5434.17,119.888C5431.25,116.717 5427.46,114.4 5422.83,112.938C5418.46,110.742 5413.79,109.642 5408.92,109.642ZM5397.58,167.804L5396.5,167.804C5395.04,167.804 5394.29,166.837 5394.29,164.887L5394.29,128.304C5394.29,127.325 5394.54,126.35 5395.04,125.371C5395.75,124.887 5396.62,124.646 5397.58,124.646L5410.42,124.646C5415.29,124.646 5419.04,125.858 5421.75,128.304C5424.67,130.25 5426.12,133.3 5426.12,137.442C5426.12,141.104 5424.92,144.154 5422.46,146.596C5419.79,148.783 5416,149.879 5411.12,149.879L5425.75,165.242L5425.75,165.975C5425.29,166.221 5424.92,166.592 5424.67,167.075C5423.92,167.562 5423.21,167.804 5422.46,167.804C5421.25,167.804 5420.04,166.958 5418.83,165.242L5405.62,150.617L5400.17,150.617L5400.17,164.887C5400.17,166.837 5399.29,167.804 5397.58,167.804ZM5409.67,129.396L5400.17,129.396L5400.17,145.858L5410.42,145.858C5413.79,145.858 5416.25,145.129 5417.71,143.671C5419.67,142.196 5420.62,140.129 5420.62,137.442C5420.62,132.079 5417,129.396 5409.67,129.396Z" style="fill:white;"/>
            </g>
        </g>
    </g>
</svg>
