<?xml version="1.0" encoding="UTF-8" standalone="no"?>
<!DOCTYPE svg PUBLIC "-//W3C//DTD SVG 1.1//EN" "http://www.w3.org/Graphics/SVG/1.1/DTD/svg11.dtd">
<svg width="100%" height="100%" viewBox="0 0 190 50" version="1.1" xmlns="http://www.w3.org/2000/svg" xmlns:xlink="http://www.w3.org/1999/xlink" xml:space="preserve" style="fill-rule:evenodd;clip-rule:evenodd;stroke-linejoin:round;stroke-miterlimit:1.41421;">
    <g transform="matrix(0.0214961,0,0,0.0214961,-2.93575,-5.09566)">
        <path d="M8066.96,1994.08L8105.21,1942.48C8109.25,1935.81 8113.92,1930.84 8119.12,1927.57C8123.58,1924.95 8127.79,1923.64 8131.71,1923.64C8132.21,1923.64 8132.79,1923.78 8133.46,1924.04C8137.92,1924.3 8142.04,1925.34 8145.83,1927.17C8149.38,1929.01 8152.29,1931.36 8154.67,1934.24C8156.75,1937.38 8157.79,1940.12 8157.79,1942.48L8090.88,2015.86C8115.33,2042.55 8127.58,2073.35 8127.58,2108.28C8127.58,2150 8111.88,2184.93 8080.5,2213.05C8048.83,2241.57 8009.67,2255.83 7962.96,2255.83C7957.33,2255.83 7948.04,2255.24 7935.08,2254.06C7925.29,2260.08 7920.38,2268.97 7920.38,2280.74C7920.38,2285.19 7921.17,2289.18 7922.75,2292.71C7924.29,2296.11 7927.12,2299.19 7931.17,2301.93C7935.08,2305.07 7939.04,2307.63 7942.96,2309.59C7946.75,2311.55 7952.88,2313.64 7961.38,2315.86C7969.62,2318.22 7976.58,2319.98 7982.21,2321.16C7987.67,2322.34 7996.38,2324.43 8008.29,2327.44C8020.46,2330.19 8030.08,2332.41 8037.12,2334.11C8124.25,2353.99 8167.62,2390.03 8167.21,2442.22C8167.21,2480.68 8149.21,2510.3 8113.25,2531.1C8077.04,2552.03 8026.67,2562.5 7962.17,2562.5C7834.75,2562.5 7771.08,2525.42 7771.08,2451.25C7771.08,2420.77 7784.46,2395 7811.29,2373.94C7838.12,2352.88 7871.67,2338.55 7911.96,2330.97C7891,2321.43 7880.54,2307.03 7880.54,2287.81C7880.54,2271.06 7888.33,2257.33 7903.92,2246.6C7873.54,2236.53 7849.04,2219.2 7830.33,2194.61C7811.75,2170.02 7802.46,2142.42 7802.46,2111.8C7802.46,2070.08 7817.96,2034.7 7848.96,2005.66C7879.96,1976.75 7918.54,1962.3 7964.71,1962.3C8004.25,1962.3 8038.29,1972.9 8066.96,1994.08ZM8024.58,2369.23C8018.83,2367.8 8009.33,2365.57 7996.12,2362.56C7982.79,2359.29 7972.71,2357 7965.92,2355.7C7938.71,2357.66 7913.67,2362.56 7890.75,2370.41C7867.62,2378.65 7848.92,2389.84 7834.62,2403.96C7819.88,2418.35 7812.46,2434.11 7812.46,2451.25C7812.46,2475.97 7825.5,2495 7851.5,2508.34C7877.42,2521.69 7914.58,2528.36 7962.96,2528.36C8014.25,2528.36 8054.25,2521.1 8083.04,2506.58C8111.54,2492.19 8125.79,2471.46 8125.79,2444.38C8125.79,2434.31 8123.12,2425.02 8117.79,2416.52C8112.12,2408.41 8104.38,2401.35 8094.42,2395.33C8084.33,2389.44 8073.83,2384.4 8062.83,2380.22C8051.83,2376.3 8039.08,2372.63 8024.58,2369.23ZM8475.12,2037.45C8475.12,2042.55 8473.29,2047.06 8469.62,2050.98C8465.83,2054.51 8462.17,2057 8458.67,2058.44C8455,2059.88 8452.83,2060.07 8452.17,2059.03C8441.46,2040.72 8424.96,2025.74 8402.71,2014.1C8380.25,2002.59 8354.88,1996.83 8326.62,1996.83C8291.67,1996.83 8264.08,2004.22 8243.79,2019C8223.25,2033.65 8213,2052.68 8213,2076.1C8213,2084.86 8214.04,2092.84 8216.12,2100.03C8218.88,2106.71 8223,2112.72 8228.5,2118.08C8234.12,2123.19 8239.75,2127.5 8245.38,2131.04C8251.38,2134.7 8259.83,2138.03 8270.67,2141.04C8282.21,2143.8 8292.08,2146.15 8300.29,2148.1C8308.83,2150.33 8320.54,2153.21 8335.42,2156.74C8346.04,2159.75 8353.96,2161.91 8359.17,2163.21C8364.79,2164.4 8372.58,2166.42 8382.54,2169.3C8392.71,2171.78 8400.62,2174.07 8406.25,2176.17C8412,2178.39 8419.08,2181.13 8427.46,2184.4C8435.83,2187.81 8442.42,2191.34 8447.29,2195C8452,2198.4 8457.29,2202.78 8463.17,2208.15C8469.04,2213.25 8473.5,2218.74 8476.5,2224.63C8479.5,2230.52 8481.92,2237.32 8483.75,2245.03C8486.12,2252.49 8487.29,2260.47 8487.29,2268.97C8487.29,2304.68 8472.79,2333.59 8443.75,2355.7C8414.46,2377.93 8375.42,2389.05 8326.62,2389.05C8293.12,2389.05 8263.96,2384.54 8239.08,2375.51C8214.25,2366.88 8194.88,2355.63 8181,2341.77C8167.54,2328.29 8160.79,2317.04 8160.79,2308.01C8160.79,2302.92 8162.62,2298.33 8166.29,2294.28C8170.08,2290.62 8173.83,2288.13 8177.5,2286.83C8180.88,2285.39 8182.96,2284.93 8183.75,2285.45C8197.25,2306.25 8216.12,2322.99 8240.46,2335.68C8264.54,2348.5 8293.83,2354.91 8328.38,2354.91C8364.75,2354.91 8393.46,2347.39 8414.5,2332.35C8435.42,2317.83 8445.92,2298.67 8445.92,2274.85C8445.92,2265.83 8444.71,2257.85 8442.38,2250.92C8440,2243.46 8435.71,2237.12 8429.42,2231.89C8422.88,2226.53 8417,2222.08 8411.75,2218.55C8406,2214.88 8397.12,2211.42 8385.08,2208.15C8372.79,2204.48 8362.83,2201.8 8355.25,2200.1C8347.79,2198.27 8335.58,2195.46 8318.54,2191.66C8308.21,2189.18 8299.79,2187.22 8293.25,2185.78C8286.96,2184.08 8278.54,2182.12 8267.92,2179.9C8257.46,2177.41 8249.08,2174.66 8242.83,2171.65C8236.67,2168.9 8229.5,2165.44 8221.25,2161.25C8212.88,2157.33 8206.25,2152.81 8201.42,2147.72C8196.33,2142.61 8191.33,2136.85 8186.5,2130.45C8181.79,2123.91 8178.46,2116.32 8176.5,2107.69C8174.17,2099.45 8172.96,2090.36 8172.96,2080.41C8172.96,2045.49 8187.25,2017.04 8215.75,1995.07C8244,1973.22 8280.96,1962.3 8326.62,1962.3C8385.08,1962.3 8429.33,1977.15 8459.42,2006.83C8469.92,2017.3 8475.12,2027.5 8475.12,2037.45ZM7429.33,2070.21C7425.42,2066.29 7423.46,2061.12 7423.46,2054.71C7423.46,2050.13 7425.54,2044.05 7429.71,2036.46C7434.04,2028.48 7439.75,2021.29 7446.79,2014.88C7481.46,1979.83 7528.83,1962.3 7588.83,1962.3C7640.12,1962.3 7680.33,1976.42 7709.5,2004.68C7738.71,2032.8 7753.29,2071.65 7753.29,2121.22L7753.29,2378.85C7753.29,2379.24 7752.62,2379.83 7751.29,2380.61C7749.75,2381.14 7747.71,2381.72 7745.25,2382.38C7742.75,2382.9 7740.38,2383.16 7738.17,2383.16C7720.62,2383.16 7711.88,2369.37 7711.88,2341.77L7711.88,2298.99C7698.29,2326.07 7677,2347.91 7648.12,2364.53C7619.08,2380.88 7585.92,2389.05 7548.62,2389.05C7505.21,2389.05 7470.88,2378.91 7445.62,2358.64C7420.12,2338.36 7407.38,2311.03 7407.38,2276.62C7407.38,2230.71 7430.79,2197.36 7477.58,2176.55C7524.71,2155.38 7599.83,2143.99 7703.04,2142.42L7711.88,2142.42L7711.88,2121.82C7711.88,2083.88 7700.75,2054.25 7678.5,2032.93C7656.54,2011.88 7625.75,2001.34 7586.12,2001.34C7552.21,2001.34 7523.38,2008.41 7499.58,2022.53C7475.92,2036.66 7458.25,2055.43 7446.58,2078.85C7445.04,2078.85 7442.88,2078.39 7440.12,2077.47C7437.12,2076.55 7433.54,2074.13 7429.33,2070.21ZM6091.25,2355.91C6092.67,2356.2 6094.12,2356.42 6095.58,2356.57C6097.04,2356.71 6098.5,2356.78 6099.96,2356.78C6102.83,2356.78 6105.96,2356.5 6109.29,2355.91C6112.62,2355.33 6115.04,2354.75 6116.5,2354.17C6117.96,2353.59 6119.46,2352.36 6121.08,2350.47C6122.67,2348.58 6124.71,2345.24 6127.17,2340.45C6129.62,2335.66 6132.75,2328.98 6136.54,2320.41C6140.29,2311.85 6145.08,2300.3 6150.92,2285.78L6052.04,2058.83L6082.96,2058.83L6167.04,2258.34L6244.58,2058.83L6272.88,2058.83L6154.83,2351.56C6150.46,2362.3 6144.58,2370.29 6137.21,2375.52C6129.79,2380.75 6119.38,2383.36 6106.04,2383.36C6100.54,2383.36 6095.58,2382.93 6091.25,2382.05L6091.25,2355.91ZM6699.04,2383.36L6400.42,2383.36C6386.42,2383.36 6379.42,2377.22 6379.42,2364.92L6379.42,2359.03C6379.42,2355.37 6380.62,2351.9 6382.96,2348.63C6384.92,2344.84 6389.29,2338.55 6396.08,2329.8L6658.62,2004.68L6402.17,2004.68C6394.58,2004.68 6389.17,2003.37 6385.92,2000.75C6382.75,1998.14 6381.21,1993.95 6381.21,1988.2L6381.21,1984.08C6381.21,1978.32 6382.75,1974.2 6385.92,1971.72C6389.17,1969.1 6394.58,1967.79 6402.17,1967.79L6693.17,1967.79C6707.17,1967.79 6714.17,1973.94 6714.17,1986.23L6714.17,1989.58C6714.17,1995.07 6708.54,2004.55 6697.29,2018.02L6432.21,2346.47L6699.04,2346.47C6713.58,2346.47 6720.83,2351.9 6720.83,2362.76L6720.83,2366.88C6720.83,2377.87 6713.58,2383.36 6699.04,2383.36ZM6773.62,2383.16L6768.71,2383.16C6756.42,2383.16 6750.25,2376.55 6750.25,2363.35L6750.25,1972.7C6750.25,1972.3 6750.92,1971.85 6752.21,1971.33C6753.67,1970.41 6755.42,1969.75 6757.5,1969.36C6759.88,1968.71 6762.17,1968.38 6764.38,1968.38C6782.17,1968.38 6791.08,1982.25 6791.08,2009.98L6791.08,2045.3C6804.54,2019.92 6823.38,1999.78 6847.58,1984.86C6871.79,1969.82 6898.58,1962.3 6928.04,1962.3C6963.58,1962.3 6993.62,1971 7018.08,1988.39C7042.29,2005.27 7059.17,2028.62 7068.71,2058.44C7081.54,2029.14 7101,2005.92 7127.17,1988.79C7153.08,1971.13 7183.38,1962.3 7218,1962.3C7268.79,1962.3 7307.71,1977.73 7334.75,2008.6C7362.08,2038.95 7375.79,2082.5 7375.79,2139.28L7375.79,2363.35C7375.79,2376.55 7369.75,2383.16 7357.71,2383.16L7352.42,2383.16C7340.38,2383.16 7334.38,2376.55 7334.38,2363.35L7334.38,2141.83C7334.38,2096.57 7324.04,2061.84 7303.38,2037.64C7283.08,2013.44 7253.79,2001.34 7215.46,2001.34C7186.71,2001.34 7160.21,2009.78 7136,2026.65C7111.54,2043.66 7094.08,2066.94 7083.62,2096.5L7083.62,2363.35C7083.62,2376.55 7077.58,2383.16 7065.58,2383.16L7060.46,2383.16C7048.29,2383.16 7042.21,2376.55 7042.21,2363.35L7042.21,2132.02C7042.21,2090.55 7032.08,2058.44 7011.79,2035.68C6991.79,2012.79 6962.42,2001.34 6923.71,2001.34C6895.46,2001.34 6869.42,2009.78 6845.62,2026.65C6821.42,2043.66 6803.5,2066.68 6791.88,2095.72L6791.88,2363.35C6791.88,2376.55 6785.79,2383.16 6773.62,2383.16ZM7700.5,2175.58C7610.5,2177.15 7546.12,2185.71 7507.42,2201.28C7468.46,2216.85 7448.96,2241.96 7448.96,2276.62C7448.96,2300.95 7458.25,2320.12 7476.83,2334.11C7495.12,2347.97 7520.17,2354.91 7551.96,2354.91C7596.96,2354.91 7634.75,2341.5 7665.38,2314.69C7696.38,2287.87 7711.88,2255.04 7711.88,2216.19L7711.88,2175.58L7700.5,2175.58ZM5844.25,2285.78L5817.67,2285.78L5817.67,1967.79L5847.29,1967.79L5847.29,2106.31C5857.46,2090.93 5869.67,2078.51 5883.88,2069.07C5898.12,2059.64 5914.79,2054.91 5933.96,2054.91C5949.67,2054.91 5963.88,2058.25 5976.67,2064.93C5989.46,2071.62 6000.25,2080.55 6009.12,2091.72C6017.96,2102.91 6024.79,2115.54 6029.58,2129.62C6034.38,2143.71 6036.79,2158.15 6036.79,2172.96C6036.79,2188.94 6034,2204.04 6028.5,2218.26C6023,2232.5 6015.38,2244.91 6005.62,2255.51C5995.92,2266.11 5984.42,2274.53 5971.21,2280.78C5958,2287.02 5943.83,2290.14 5928.75,2290.14C5911.04,2290.14 5894.62,2285.64 5879.54,2276.64C5864.42,2267.64 5852.67,2256.02 5844.25,2241.79L5844.25,2285.78ZM5921.79,2264C5934.25,2264 5945.67,2261.46 5955.96,2256.38C5966.29,2251.3 5975.12,2244.47 5982.54,2235.91C5989.96,2227.35 5995.75,2217.61 5999.96,2206.72C6004.17,2195.83 6006.29,2184.58 6006.29,2172.96C6006.29,2161.06 6004.33,2149.59 6000.42,2138.55C5996.5,2127.52 5990.96,2117.71 5983.83,2109.15C5976.75,2100.58 5968.25,2093.75 5958.38,2088.67C5948.5,2083.6 5937.58,2081.05 5925.71,2081.05C5916.71,2081.05 5908.29,2082.57 5900.42,2085.62C5892.58,2088.67 5885.33,2092.81 5878.67,2098.04C5871.96,2103.27 5865.96,2109.3 5860.58,2116.12C5855.21,2122.94 5850.79,2130.13 5847.29,2137.68L5847.29,2208.25C5848.46,2216.09 5851.58,2223.43 5856.67,2230.24C5861.75,2237.07 5867.92,2242.95 5875.17,2247.89C5882.42,2252.83 5890.12,2256.75 5898.25,2259.65C5906.38,2262.55 5914.21,2264 5921.79,2264ZM7963.75,1996.83C7928.54,1996.83 7899.71,2007.36 7877.21,2028.42C7855.12,2049.48 7844.04,2076.82 7844.04,2110.43C7844.04,2143.4 7855.25,2170.34 7877.62,2191.28C7900.12,2212.47 7928.83,2223.06 7963.75,2223.06C7999.46,2223.06 8028.38,2212.47 8050.46,2191.28C8073.08,2170.34 8084.42,2143.4 8084.42,2110.43C8084.42,2076.82 8073.29,2049.48 8051.04,2028.42C8028.96,2007.36 7999.83,1996.83 7963.75,1996.83ZM250.692,628.054L250.692,817.008C289.979,755.271 342.362,706.629 405.971,667.342C469.579,629.925 538.8,611.217 613.633,611.217C680.983,611.217 742.721,624.312 800.717,652.375C856.842,680.437 905.483,717.854 946.642,764.625C987.8,811.396 1019.6,865.65 1043.92,927.387C1066.38,989.125 1077.6,1050.86 1077.6,1116.34C1077.6,1185.56 1066.38,1249.17 1045.8,1310.91C1025.22,1372.65 995.283,1425.03 955.996,1471.8C916.708,1518.57 869.938,1554.12 815.683,1580.31C761.429,1608.37 701.562,1621.47 636.083,1621.47C553.767,1621.47 480.804,1600.89 417.196,1557.86C353.588,1516.7 303.075,1464.32 263.787,1400.71L263.787,2001.25L136.571,2001.25L136.571,628.054L250.692,628.054ZM8501.46,1964.49C8503.79,1964.49 8505.96,1964.92 8508.08,1965.78C8509.92,1966.55 8511.54,1967.7 8512.96,1969.23C8514.38,1970.56 8515.5,1972.24 8516.25,1974.25C8517.04,1976.25 8517.42,1978.46 8517.42,1980.85C8517.42,1983.05 8517.04,1985.15 8516.25,1987.16C8515.5,1989.17 8514.38,1990.85 8512.96,1992.18C8511.54,1993.72 8509.79,1994.87 8507.79,1995.63C8505.79,1996.5 8503.67,1996.92 8501.46,1996.92C8498.42,1996.92 8495.71,1996.25 8493.29,1994.92C8490.79,1993.58 8488.83,1991.71 8487.42,1989.32C8486.08,1986.83 8485.42,1984.01 8485.42,1980.85C8485.42,1978.55 8485.88,1976.4 8486.83,1974.39C8487.58,1972.39 8488.67,1970.66 8490,1969.23C8491.42,1967.89 8493.12,1966.74 8495,1965.78C8497.04,1964.92 8499.17,1964.49 8501.46,1964.49ZM8501.46,1966.35C8497.38,1966.35 8494,1967.7 8491.42,1970.38C8488.75,1973.05 8487.42,1976.55 8487.42,1980.85C8487.42,1985.06 8488.83,1988.5 8491.71,1991.18C8494.21,1993.86 8497.46,1995.2 8501.46,1995.2C8505.58,1995.2 8508.88,1993.86 8511.38,1991.18C8513.96,1988.5 8515.25,1985.06 8515.25,1980.85C8515.25,1978.75 8514.92,1976.83 8514.25,1975.11C8513.58,1973.29 8512.62,1971.71 8511.38,1970.38C8510.25,1969.13 8508.75,1968.22 8506.92,1967.65C8505.21,1966.79 8503.38,1966.35 8501.46,1966.35ZM8497.04,1989.17L8496.58,1989.17C8496.04,1989.17 8495.75,1988.79 8495.75,1988.03L8495.75,1973.67C8495.75,1973.29 8495.83,1972.91 8496.04,1972.53C8496.29,1972.34 8496.62,1972.24 8497.04,1972.24L8502.04,1972.24C8503.96,1972.24 8505.46,1972.72 8506.5,1973.67C8507.67,1974.44 8508.21,1975.64 8508.21,1977.26C8508.21,1978.7 8507.75,1979.89 8506.79,1980.85C8505.75,1981.71 8504.25,1982.14 8502.33,1982.14L8508.08,1988.17L8508.08,1988.45C8507.88,1988.55 8507.75,1988.7 8507.67,1988.88C8507.38,1989.08 8507.08,1989.17 8506.79,1989.17C8506.29,1989.17 8505.83,1988.84 8505.33,1988.17L8500.17,1982.43L8498.04,1982.43L8498.04,1988.03C8498.04,1988.79 8497.71,1989.17 8497.04,1989.17ZM8498.04,1974.11L8498.04,1980.56L8502.04,1980.56C8503.38,1980.56 8504.33,1980.28 8504.92,1979.7C8505.67,1979.13 8506.08,1978.31 8506.08,1977.26C8506.08,1975.16 8504.62,1974.11 8501.75,1974.11L8498.04,1974.11ZM7514.99,1580.31C7572.99,1554.12 7625.37,1518.57 7668.4,1471.8C7711.43,1425.03 7745.1,1372.65 7769.43,1310.91C7793.75,1249.17 7804.97,1185.56 7804.97,1118.21C7804.97,1048.99 7793.75,985.383 7769.43,923.646C7745.1,861.908 7711.43,809.525 7668.4,762.754C7625.37,715.983 7572.99,680.437 7514.99,652.375C7455.12,624.312 7389.65,611.217 7320.43,611.217C7251.2,611.217 7185.73,624.312 7127.73,652.375C7067.86,680.437 7017.35,715.983 6974.32,762.754C6931.29,809.525 6897.62,861.908 6873.3,923.646C6848.98,985.383 6835.88,1048.99 6835.88,1118.21C6835.88,1185.56 6847.1,1249.17 6871.43,1310.91C6895.75,1372.65 6929.42,1425.03 6972.45,1471.8C7015.48,1518.57 7065.99,1554.12 7125.86,1580.31C7183.85,1608.37 7249.33,1621.47 7320.43,1621.47C7389.65,1621.47 7455.12,1608.37 7514.99,1580.31ZM4306.59,1309.04C4330.91,1370.78 4364.58,1423.16 4407.61,1469.93C4450.64,1516.7 4503.03,1554.12 4562.89,1580.31C4622.76,1608.37 4688.24,1621.47 4759.33,1621.47C4806.1,1621.47 4851,1615.85 4894.03,1602.76C4937.06,1591.53 4976.35,1574.7 5011.89,1552.25C5047.44,1531.67 5077.37,1505.48 5103.56,1475.54C5129.75,1447.48 5150.33,1415.67 5163.43,1380.13L5039.95,1342.71C5032.47,1365.16 5019.38,1385.74 5000.67,1406.32C4981.96,1426.9 4959.51,1443.74 4933.32,1458.7C4907.12,1475.54 4879.06,1486.77 4849.13,1496.12C4817.32,1505.48 4787.39,1509.22 4755.59,1509.22C4706.95,1509.22 4662.05,1497.99 4619.02,1477.41C4575.99,1456.83 4536.7,1428.77 4504.9,1393.23C4473.09,1357.68 4446.9,1316.52 4428.19,1267.88C4409.48,1219.24 4400.13,1166.85 4400.13,1112.6C4400.13,1056.47 4409.48,1004.09 4428.19,957.321C4445.03,910.55 4471.22,869.392 4503.03,833.846C4534.83,800.171 4572.25,773.979 4615.28,753.4C4658.3,732.821 4703.2,723.467 4753.72,723.467C4813.58,723.467 4867.84,736.562 4916.48,764.625C4965.12,792.687 5002.54,831.975 5030.6,882.487L5154.07,843.2C5118.53,772.108 5068.02,715.983 4998.8,672.954C4929.57,631.796 4849.13,611.217 4757.46,611.217C4684.5,611.217 4619.02,624.312 4559.15,650.504C4499.28,676.696 4448.77,712.242 4405.74,757.142C4362.71,803.912 4329.04,856.296 4304.72,918.033C4280.4,979.771 4269.17,1043.38 4269.17,1112.6C4269.17,1181.82 4282.27,1247.3 4306.59,1309.04ZM1404.98,628.054L1404.98,1178.08C1404.98,1398.84 1479.81,1509.22 1631.35,1509.22C1668.77,1509.22 1706.18,1503.6 1741.73,1490.51C1777.28,1477.41 1810.95,1460.58 1842.75,1436.25C1872.69,1411.93 1900.75,1383.87 1925.07,1352.07C1949.39,1320.26 1968.1,1282.85 1983.07,1241.69L1983.07,628.054L2110.28,628.054L2110.28,1438.12C2110.28,1473.67 2125.25,1490.51 2157.05,1490.51L2157.05,1602.76C2132.73,1606.5 2114.03,1608.37 2104.67,1608.37C2076.61,1608.37 2052.29,1599.02 2031.71,1582.18C2011.13,1565.34 1999.9,1542.89 1999.9,1516.7L1999.9,1382C1956.88,1458.7 1898.88,1516.7 1825.92,1557.86C1752.95,1600.89 1674.38,1621.47 1588.32,1621.47C1485.42,1621.47 1408.72,1585.92 1356.34,1514.83C1303.95,1445.61 1277.76,1340.84 1277.76,1200.53L1277.76,628.054L1404.98,628.054ZM5831.28,1572.83C5900.5,1541.02 5954.75,1497.99 5997.78,1440L6001.52,1516.7C6003.39,1546.63 6016.49,1569.08 6037.07,1584.05C6057.65,1599.02 6080.1,1606.5 6104.42,1606.5C6110.03,1606.5 6117.51,1606.5 6126.87,1604.63C6136.22,1604.63 6145.57,1604.63 6154.93,1602.76L6154.93,1490.51C6125,1490.51 6110.03,1473.67 6110.03,1438.12L6110.03,998.479C6110.03,876.875 6074.48,783.333 6005.26,714.112C5936.04,644.892 5840.63,611.217 5722.77,611.217C5657.29,611.217 5595.55,622.442 5535.68,643.021C5475.82,663.6 5414.08,695.404 5350.47,738.433L5395.37,822.621C5449.62,785.204 5502.01,757.142 5554.39,736.562C5604.9,715.983 5657.29,706.629 5709.67,706.629C5793.86,706.629 5859.34,730.95 5909.85,781.462C5958.49,831.975 5982.81,901.196 5982.81,987.254L5982.81,1075.18C5943.53,1058.35 5896.75,1047.12 5846.24,1037.77C5795.73,1028.41 5745.22,1024.67 5696.57,1024.67C5634.84,1024.67 5580.58,1032.15 5530.07,1045.25C5479.56,1060.22 5434.66,1080.8 5399.11,1106.99C5363.57,1133.18 5335.5,1164.98 5314.93,1200.53C5294.35,1237.95 5284.99,1279.1 5284.99,1324C5284.99,1363.29 5292.48,1402.58 5309.31,1438.12C5326.15,1473.67 5348.6,1505.48 5378.53,1533.54C5406.6,1561.6 5442.14,1582.18 5483.3,1597.15C5524.46,1613.98 5569.36,1621.47 5619.87,1621.47C5690.96,1621.47 5762.05,1604.63 5831.28,1572.83ZM2488.18,237.05L2488.18,831.975C2531.21,766.496 2583.59,712.242 2645.33,671.083C2707.07,631.796 2778.16,611.217 2860.47,611.217C2927.83,611.217 2989.56,626.183 3043.82,654.246C3098.07,682.308 3144.84,721.596 3184.13,768.367C3221.55,817.008 3251.48,871.262 3272.06,931.129C3292.64,992.867 3301.99,1054.6 3301.99,1118.21C3301.99,1187.43 3290.77,1251.04 3266.45,1312.78C3242.12,1374.52 3210.32,1426.9 3169.16,1471.8C3126.13,1518.57 3077.49,1554.12 3021.37,1580.31C2963.37,1608.37 2903.5,1621.47 2838.03,1621.47C2761.32,1621.47 2692.1,1602.76 2626.62,1563.47C2561.14,1524.18 2510.63,1475.54 2475.08,1413.8L2475.08,1602.76L2360.96,1602.76L2360.96,237.05L2488.18,237.05ZM3608.8,237.05L3608.8,1382C3608.8,1417.55 3618.16,1445.61 3638.74,1466.19C3659.32,1486.77 3687.38,1497.99 3722.93,1497.99C3736.02,1497.99 3752.86,1496.12 3771.57,1492.38C3790.28,1488.64 3807.11,1483.03 3823.95,1477.41L3846.4,1580.31C3822.08,1589.66 3794.02,1599.02 3760.34,1604.63C3724.8,1610.24 3694.86,1613.98 3670.54,1613.98C3612.55,1613.98 3565.78,1597.15 3532.1,1563.47C3498.43,1531.67 3481.59,1484.9 3481.59,1425.03L3481.59,237.05L3608.8,237.05ZM6508.52,298.787L6508.52,628.054L6733.02,628.054L6733.02,729.079L6508.52,729.079L6508.52,1391.35C6510.39,1426.9 6523.49,1453.09 6545.94,1469.93C6568.39,1486.77 6594.58,1496.12 6626.38,1496.12C6661.93,1496.12 6693.73,1490.51 6721.8,1477.41C6749.86,1466.19 6766.7,1458.7 6774.18,1453.09L6807.85,1555.99C6800.37,1559.73 6789.15,1565.34 6776.05,1570.95C6761.08,1576.57 6744.25,1584.05 6725.54,1589.66C6706.83,1595.28 6686.25,1600.89 6661.93,1606.5C6637.61,1612.11 6613.29,1613.98 6587.1,1613.98C6559.03,1613.98 6532.84,1610.24 6508.52,1602.76C6484.2,1595.28 6461.75,1584.05 6443.04,1567.21C6424.33,1552.25 6409.37,1533.54 6398.14,1509.22C6386.92,1484.9 6381.3,1458.7 6381.3,1426.9L6381.3,729.079L6246.6,729.079L6246.6,628.054L6381.3,628.054L6381.3,298.787L6508.52,298.787ZM8437.29,622.442C8446.65,622.442 8456,622.442 8461.61,624.312L8461.61,740.304C8375.55,742.175 8300.72,766.496 8237.11,811.396C8173.5,856.296 8128.6,918.033 8102.41,996.608L8102.41,1602.76L7975.2,1602.76L7975.2,628.054L8094.93,628.054L8094.93,861.908C8128.6,792.687 8173.5,736.562 8227.76,689.792C8282.01,644.892 8341.88,622.442 8405.49,622.442L8437.29,622.442ZM3969.86,628.054L4097.07,628.054L4097.07,1602.76L3969.86,1602.76L3969.86,628.054ZM5545.04,1505.48C5515.1,1492.38 5490.78,1477.41 5470.2,1456.83C5449.62,1436.25 5432.79,1413.8 5423.43,1389.48C5414.08,1365.16 5408.47,1338.97 5408.47,1312.78C5408.47,1247.3 5436.53,1196.79 5494.53,1159.37C5550.65,1123.83 5623.61,1105.12 5715.28,1105.12C5758.31,1105.12 5803.21,1108.86 5849.98,1118.21C5896.75,1127.57 5939.78,1138.79 5982.81,1155.63L5982.81,1314.65C5982.81,1325.88 5979.07,1337.1 5973.46,1350.2C5967.85,1363.29 5960.36,1376.39 5951.01,1387.61C5919.2,1430.64 5874.3,1462.45 5820.05,1486.77C5763.93,1511.09 5707.8,1524.18 5651.68,1524.18C5610.52,1524.18 5574.97,1518.57 5545.04,1505.48ZM495.771,1490.51C460.225,1477.41 428.421,1460.58 400.358,1438.12C370.425,1417.55 344.233,1391.35 321.783,1361.42C297.462,1331.49 278.754,1299.68 263.787,1264.14L263.787,964.804C269.4,933 282.496,901.196 304.946,871.262C325.525,843.2 351.717,817.008 383.521,794.558C415.325,773.979 447.129,755.271 482.675,742.175C518.221,729.079 551.896,723.467 583.7,723.467C634.212,723.467 682.854,734.692 727.754,755.271C770.783,775.85 810.071,805.783 841.875,841.329C873.679,876.875 899.871,919.904 918.579,966.675C937.288,1013.45 946.642,1063.96 946.642,1116.34C946.642,1166.85 939.158,1213.62 922.321,1260.4C905.483,1307.17 883.033,1350.2 853.1,1385.74C821.296,1423.16 785.75,1453.09 742.721,1475.54C699.692,1497.99 652.921,1509.22 600.537,1509.22C564.992,1509.22 529.446,1503.6 495.771,1490.51ZM2707.07,1490.51C2671.52,1477.41 2639.72,1460.58 2607.91,1440C2576.11,1419.42 2549.92,1393.23 2529.34,1363.29C2506.89,1335.23 2493.79,1303.42 2488.18,1269.75L2488.18,966.675C2503.15,934.871 2521.85,903.067 2546.18,873.133C2568.62,845.071 2594.82,818.879 2622.88,796.429C2650.94,773.979 2682.75,755.271 2716.42,742.175C2750.1,729.079 2785.64,723.467 2824.93,723.467C2875.44,723.467 2922.21,734.692 2965.24,755.271C3008.27,777.721 3043.82,807.654 3075.62,843.2C3105.55,880.617 3129.88,923.646 3146.71,970.417C3163.55,1017.19 3171.03,1067.7 3171.03,1118.21C3171.03,1168.73 3161.68,1215.5 3144.84,1262.27C3126.13,1309.04 3101.81,1352.07 3070.01,1387.61C3038.2,1425.03 2998.92,1454.96 2955.89,1475.54C2910.99,1497.99 2862.35,1509.22 2808.09,1509.22C2776.29,1509.22 2742.61,1503.6 2707.07,1490.51ZM6994.9,964.804C7013.61,918.033 7039.8,875.004 7071.6,839.458C7103.41,803.912 7140.82,773.979 7183.85,753.4C7226.88,732.821 7271.78,723.467 7320.43,723.467C7369.07,723.467 7413.97,732.821 7457,753.4C7500.03,773.979 7537.44,802.042 7569.25,837.587C7601.05,873.133 7627.24,916.162 7645.95,962.933C7664.66,1011.58 7674.01,1062.09 7674.01,1116.34C7674.01,1170.6 7664.66,1222.98 7645.95,1269.75C7627.24,1316.52 7601.05,1357.68 7569.25,1393.23C7537.44,1428.77 7500.03,1456.83 7457,1477.41C7413.97,1497.99 7367.2,1509.22 7318.55,1509.22C7269.91,1509.22 7225.01,1499.86 7181.98,1479.28C7138.95,1458.7 7101.54,1430.64 7069.73,1395.1C7037.93,1359.55 7011.74,1318.39 6994.9,1271.62C6976.19,1224.85 6966.84,1174.34 6966.84,1120.08C6966.84,1065.83 6976.19,1013.45 6994.9,964.804ZM8711.16,759.704L8681.04,759.704L8681.04,633.117L8632.54,633.117L8632.54,608.025L8759.67,608.025L8759.67,633.117L8711.16,633.117L8711.16,759.704ZM8797.58,759.704L8768.58,759.704L8779.75,608.025L8824.92,608.025L8851.12,682.188C8854.46,693.904 8857.25,705.054 8861.17,720.667L8861.71,720.667C8865.62,706.729 8868.96,693.904 8872.33,682.746L8898.54,608.025L8942.04,608.025L8953.75,759.704L8923.62,759.704L8918.04,670.479C8917.5,658.771 8917.5,644.271 8916.92,628.1L8915.25,628.1C8911.38,641.483 8906.92,659.329 8902.42,673.263L8875.12,757.467L8843.88,757.467L8816.54,671.038C8813.75,659.329 8809.29,641.483 8805.96,628.1L8804.29,628.1C8804.29,642.037 8803.75,656.542 8803.17,670.479L8797.58,759.704ZM3969.86,237.05L4097.07,237.05L4097.07,424.133L3969.86,424.133L3969.86,237.05Z" style="fill:white;"/>
    </g>
</svg>