<?xml version="1.0" encoding="UTF-8" standalone="no"?><!DOCTYPE svg PUBLIC "-//W3C//DTD SVG 1.1//EN" "http://www.w3.org/Graphics/SVG/1.1/DTD/svg11.dtd"><svg width="100%" height="100%" viewBox="0 0 480 127" version="1.1" xmlns="http://www.w3.org/2000/svg" xmlns:xlink="http://www.w3.org/1999/xlink" xml:space="preserve" style="fill-rule:evenodd;clip-rule:evenodd;stroke-linejoin:round;stroke-miterlimit:1.41421;"><path id="Shape" d="M431.434,95.084l2.082,-2.809c0.22,-0.363 0.475,-0.634 0.758,-0.812c0.242,-0.143 0.472,-0.214 0.685,-0.214c0.027,0 0.059,0.008 0.095,0.022c0.243,0.014 0.467,0.071 0.674,0.17c0.193,0.1 0.351,0.228 0.481,0.385c0.113,0.171 0.17,0.32 0.17,0.449l-3.643,3.994c1.331,1.453 1.998,3.13 1.998,5.032c0,2.271 -0.854,4.172 -2.563,5.703c-1.724,1.553 -3.856,2.329 -6.399,2.329c-0.306,0 -0.812,-0.032 -1.517,-0.096c-0.533,0.328 -0.801,0.812 -0.801,1.452c0,0.243 0.043,0.46 0.129,0.652c0.084,0.185 0.238,0.353 0.459,0.502c0.213,0.171 0.428,0.31 0.642,0.417c0.206,0.107 0.54,0.22 1.002,0.341c0.449,0.129 0.828,0.225 1.134,0.289c0.298,0.064 0.772,0.178 1.42,0.342c0.663,0.149 1.186,0.27 1.57,0.363c4.743,1.082 7.104,3.044 7.082,5.885c0,2.094 -0.98,3.706 -2.938,4.839c-1.971,1.139 -4.713,1.709 -8.225,1.709c-6.936,0 -10.402,-2.019 -10.402,-6.056c0,-1.66 0.728,-3.062 2.189,-4.209c1.46,-1.146 3.287,-1.927 5.48,-2.339c-1.141,-0.52 -1.71,-1.303 -1.71,-2.35c0,-0.912 0.424,-1.659 1.272,-2.243c-1.654,-0.548 -2.987,-1.492 -4.006,-2.831c-1.011,-1.338 -1.517,-2.841 -1.517,-4.508c0,-2.271 0.844,-4.197 2.531,-5.778c1.688,-1.574 3.788,-2.36 6.302,-2.36c2.152,0 4.005,0.577 5.566,1.73Zm-2.307,20.423c-0.313,-0.078 -0.83,-0.2 -1.549,-0.363c-0.726,-0.178 -1.275,-0.303 -1.644,-0.374c-1.482,0.107 -2.845,0.374 -4.093,0.801c-1.259,0.448 -2.277,1.058 -3.055,1.826c-0.803,0.784 -1.207,1.642 -1.207,2.575c0,1.345 0.71,2.381 2.126,3.108c1.411,0.726 3.434,1.09 6.067,1.09c2.793,0 4.97,-0.396 6.537,-1.186c1.552,-0.784 2.328,-1.912 2.328,-3.386c0,-0.548 -0.146,-1.054 -0.436,-1.517c-0.308,-0.441 -0.73,-0.826 -1.272,-1.153c-0.549,-0.321 -1.121,-0.596 -1.72,-0.823c-0.599,-0.213 -1.293,-0.413 -2.082,-0.598Zm24.527,-18.062c0,0.277 -0.1,0.523 -0.299,0.736c-0.207,0.193 -0.406,0.328 -0.597,0.406c-0.199,0.079 -0.317,0.089 -0.353,0.033c-0.583,-0.997 -1.482,-1.813 -2.693,-2.446c-1.223,-0.627 -2.604,-0.941 -4.142,-0.941c-1.903,0 -3.405,0.403 -4.509,1.207c-1.119,0.798 -1.677,1.834 -1.677,3.109c0,0.477 0.057,0.911 0.17,1.303c0.151,0.363 0.375,0.69 0.674,0.982c0.306,0.278 0.613,0.513 0.919,0.706c0.327,0.199 0.787,0.38 1.377,0.544c0.628,0.15 1.165,0.278 1.612,0.385c0.465,0.121 1.103,0.278 1.913,0.47c0.578,0.164 1.009,0.281 1.293,0.352c0.306,0.065 0.73,0.175 1.272,0.332c0.554,0.135 0.984,0.259 1.291,0.374c0.313,0.12 0.698,0.27 1.154,0.448c0.456,0.185 0.815,0.377 1.08,0.577c0.256,0.185 0.544,0.423 0.864,0.716c0.32,0.277 0.563,0.576 0.726,0.897c0.163,0.32 0.295,0.691 0.395,1.11c0.129,0.406 0.193,0.841 0.193,1.304c0,1.944 -0.79,3.517 -2.371,4.721c-1.594,1.21 -3.72,1.816 -6.376,1.816c-1.824,0 -3.411,-0.246 -4.766,-0.737c-1.352,-0.47 -2.406,-1.083 -3.162,-1.837c-0.732,-0.734 -1.1,-1.347 -1.1,-1.838c0,-0.277 0.1,-0.527 0.3,-0.748c0.206,-0.199 0.41,-0.334 0.61,-0.405c0.184,-0.079 0.297,-0.104 0.34,-0.075c0.735,1.132 1.762,2.043 3.087,2.734c1.311,0.698 2.906,1.047 4.787,1.047c1.98,0 3.542,-0.409 4.688,-1.228c1.139,-0.791 1.71,-1.834 1.71,-3.13c0,-0.491 -0.065,-0.926 -0.192,-1.303c-0.13,-0.406 -0.363,-0.751 -0.706,-1.036c-0.356,-0.292 -0.676,-0.534 -0.962,-0.726c-0.313,-0.2 -0.796,-0.388 -1.452,-0.566c-0.669,-0.2 -1.211,-0.346 -1.624,-0.439c-0.406,-0.099 -1.07,-0.252 -1.998,-0.459c-0.562,-0.135 -1.021,-0.242 -1.377,-0.32c-0.342,-0.093 -0.801,-0.199 -1.379,-0.32c-0.569,-0.136 -1.025,-0.286 -1.366,-0.449c-0.335,-0.15 -0.725,-0.339 -1.174,-0.567c-0.456,-0.213 -0.817,-0.459 -1.08,-0.736c-0.277,-0.278 -0.549,-0.592 -0.812,-0.94c-0.257,-0.356 -0.438,-0.77 -0.545,-1.239c-0.126,-0.449 -0.192,-0.944 -0.192,-1.485c0,-1.902 0.778,-3.45 2.329,-4.646c1.538,-1.19 3.55,-1.784 6.036,-1.784c3.182,0 5.591,0.808 7.229,2.424c0.572,0.57 0.855,1.125 0.855,1.667Zm-56.932,1.783c-0.213,-0.213 -0.32,-0.495 -0.32,-0.844c0,-0.249 0.114,-0.58 0.341,-0.993c0.235,-0.435 0.546,-0.826 0.93,-1.175c1.887,-1.908 4.466,-2.862 7.732,-2.862c2.792,0 4.981,0.768 6.569,2.307c1.59,1.531 2.384,3.646 2.384,6.344l0,14.025c0,0.022 -0.036,0.054 -0.109,0.096c-0.084,0.029 -0.195,0.061 -0.329,0.097c-0.136,0.028 -0.265,0.042 -0.385,0.042c-0.955,0 -1.431,-0.751 -1.431,-2.253l0,-2.329c-0.74,1.474 -1.899,2.663 -3.471,3.568c-1.581,0.89 -3.386,1.335 -5.417,1.335c-2.363,0 -4.232,-0.552 -5.607,-1.656c-1.388,-1.104 -2.082,-2.592 -2.082,-4.465c0,-2.499 1.275,-4.315 3.822,-5.448c2.565,-1.152 6.655,-1.772 12.274,-1.858l0.481,0l0,-1.121c0,-2.066 -0.606,-3.679 -1.817,-4.839c-1.196,-1.146 -2.872,-1.72 -5.029,-1.72c-1.846,0 -3.416,0.385 -4.712,1.154c-1.288,0.769 -2.25,1.791 -2.885,3.066c-0.084,0 -0.201,-0.025 -0.352,-0.076c-0.163,-0.05 -0.358,-0.181 -0.587,-0.395Zm-72.844,15.554c0.077,0.015 0.156,0.027 0.236,0.035c0.079,0.008 0.159,0.012 0.238,0.012c0.156,0 0.327,-0.015 0.508,-0.047c0.181,-0.032 0.313,-0.064 0.393,-0.095c0.079,-0.032 0.161,-0.099 0.249,-0.202c0.087,-0.103 0.198,-0.284 0.332,-0.545c0.133,-0.261 0.303,-0.625 0.51,-1.091c0.204,-0.466 0.465,-1.095 0.782,-1.885l-5.382,-12.355l1.683,0l4.577,10.861l4.221,-10.861l1.541,0l-6.427,15.936c-0.238,0.584 -0.558,1.019 -0.959,1.304c-0.404,0.285 -0.971,0.427 -1.697,0.427c-0.299,0 -0.569,-0.024 -0.805,-0.071l0,-1.423Zm33.088,1.494l-16.257,0c-0.762,0 -1.143,-0.334 -1.143,-1.004l0,-0.321c0,-0.199 0.065,-0.388 0.193,-0.566c0.106,-0.206 0.344,-0.549 0.714,-1.025l14.292,-17.699l-13.961,0c-0.413,0 -0.707,-0.071 -0.884,-0.214c-0.173,-0.142 -0.257,-0.37 -0.257,-0.683l0,-0.225c0,-0.313 0.084,-0.537 0.257,-0.672c0.177,-0.143 0.471,-0.214 0.884,-0.214l15.842,0c0.762,0 1.143,0.334 1.143,1.003l0,0.183c0,0.299 -0.306,0.815 -0.919,1.548l-14.43,17.881l14.526,0c0.791,0 1.186,0.295 1.186,0.886l0,0.225c0,0.598 -0.395,0.897 -1.186,0.897Zm4.06,-0.011l-0.268,0c-0.669,0 -1.005,-0.36 -1.005,-1.078l0,-21.267c0,-0.022 0.037,-0.046 0.107,-0.075c0.08,-0.05 0.175,-0.086 0.288,-0.107c0.13,-0.035 0.254,-0.053 0.375,-0.053c0.968,0 1.453,0.755 1.453,2.264l0,1.923c0.733,-1.382 1.759,-2.478 3.076,-3.29c1.318,-0.819 2.776,-1.228 4.38,-1.228c1.935,0 3.57,0.473 4.902,1.42c1.318,0.919 2.237,2.19 2.756,3.813c0.699,-1.595 1.758,-2.859 3.183,-3.791c1.41,-0.962 3.06,-1.442 4.944,-1.442c2.765,0 4.884,0.84 6.356,2.52c1.488,1.652 2.234,4.023 2.234,7.114l0,12.199c0,0.718 -0.328,1.078 -0.984,1.078l-0.288,0c-0.655,0 -0.982,-0.36 -0.982,-1.078l0,-12.06c0,-2.464 -0.563,-4.354 -1.688,-5.672c-1.105,-1.317 -2.699,-1.976 -4.786,-1.976c-1.565,0 -3.008,0.459 -4.326,1.378c-1.331,0.926 -2.282,2.193 -2.851,3.802l0,14.528c0,0.718 -0.329,1.078 -0.982,1.078l-0.279,0c-0.662,0 -0.993,-0.36 -0.993,-1.078l0,-12.594c0,-2.257 -0.552,-4.006 -1.656,-5.245c-1.089,-1.246 -2.688,-1.869 -4.795,-1.869c-1.538,0 -2.956,0.459 -4.252,1.378c-1.317,0.926 -2.293,2.179 -2.925,3.76l0,14.57c0,0.718 -0.332,1.078 -0.994,1.078Zm50.458,-11.301c-4.899,0.086 -8.404,0.552 -10.511,1.4c-2.121,0.847 -3.182,2.214 -3.182,4.101c0,1.325 0.505,2.368 1.517,3.13c0.996,0.754 2.359,1.132 4.09,1.132c2.45,0 4.507,-0.73 6.174,-2.189c1.688,-1.461 2.532,-3.248 2.532,-5.363l0,-2.211l-0.62,0Zm-101.052,6l-1.447,0l0,-17.311l1.612,0l0,7.54c0.554,-0.837 1.218,-1.513 1.992,-2.027c0.775,-0.513 1.683,-0.771 2.726,-0.771c0.856,0 1.629,0.182 2.325,0.546c0.697,0.364 1.284,0.85 1.767,1.458c0.481,0.609 0.853,1.297 1.114,2.063c0.261,0.768 0.392,1.554 0.392,2.36c0,0.87 -0.152,1.692 -0.451,2.466c-0.299,0.775 -0.714,1.451 -1.246,2.028c-0.528,0.577 -1.154,1.035 -1.873,1.375c-0.719,0.34 -1.49,0.51 -2.311,0.51c-0.964,0 -1.858,-0.245 -2.679,-0.735c-0.823,-0.49 -1.463,-1.122 -1.921,-1.897l0,2.395Zm4.221,-1.186c0.678,0 1.3,-0.138 1.86,-0.415c0.562,-0.276 1.043,-0.648 1.447,-1.114c0.404,-0.466 0.719,-0.996 0.948,-1.589c0.23,-0.593 0.345,-1.206 0.345,-1.838c0,-0.648 -0.107,-1.272 -0.32,-1.873c-0.213,-0.601 -0.515,-1.135 -0.903,-1.601c-0.385,-0.466 -0.848,-0.838 -1.385,-1.115c-0.538,-0.276 -1.133,-0.415 -1.779,-0.415c-0.49,0 -0.948,0.083 -1.377,0.249c-0.426,0.166 -0.821,0.392 -1.184,0.676c-0.365,0.285 -0.692,0.613 -0.984,0.985c-0.293,0.371 -0.533,0.762 -0.724,1.173l0,3.842c0.064,0.427 0.234,0.826 0.511,1.197c0.276,0.372 0.612,0.692 1.007,0.961c0.395,0.269 0.814,0.482 1.256,0.64c0.443,0.158 0.869,0.237 1.282,0.237Zm111.162,-14.545c-1.916,0 -3.486,0.574 -4.711,1.72c-1.202,1.147 -1.805,2.635 -1.805,4.465c0,1.795 0.61,3.261 1.828,4.401c1.224,1.154 2.787,1.73 4.688,1.73c1.944,0 3.519,-0.576 4.721,-1.73c1.231,-1.14 1.849,-2.606 1.849,-4.401c0,-1.83 -0.606,-3.318 -1.818,-4.465c-1.202,-1.146 -2.787,-1.72 -4.752,-1.72Zm-419.892,-74.515l0,10.287c2.139,-3.361 4.99,-6.009 8.453,-8.148c3.463,-2.037 7.231,-3.055 11.305,-3.055c3.667,0 7.028,0.713 10.185,2.24c3.055,1.528 5.703,3.565 7.944,6.111c2.24,2.546 3.972,5.5 5.296,8.861c1.222,3.361 1.833,6.722 1.833,10.286c0,3.769 -0.611,7.231 -1.731,10.593c-1.12,3.361 -2.75,6.212 -4.889,8.758c-2.139,2.546 -4.685,4.482 -7.638,5.907c-2.954,1.528 -6.213,2.241 -9.778,2.241c-4.481,0 -8.453,-1.12 -11.916,-3.463c-3.463,-2.24 -6.212,-5.092 -8.351,-8.555l0,32.693l-6.926,0l0,-74.756l6.213,0Zm449.165,72.755c0.127,0 0.245,0.023 0.36,0.07c0.1,0.042 0.189,0.105 0.266,0.188c0.077,0.072 0.138,0.164 0.179,0.273c0.043,0.109 0.064,0.229 0.064,0.36c0,0.119 -0.021,0.234 -0.064,0.343c-0.041,0.109 -0.102,0.201 -0.179,0.273c-0.077,0.084 -0.173,0.147 -0.281,0.188c-0.109,0.048 -0.225,0.07 -0.345,0.07c-0.166,0 -0.313,-0.036 -0.445,-0.108c-0.136,-0.073 -0.243,-0.175 -0.319,-0.305c-0.073,-0.136 -0.109,-0.289 -0.109,-0.461c0,-0.126 0.025,-0.243 0.076,-0.352c0.041,-0.109 0.101,-0.203 0.173,-0.281c0.077,-0.073 0.17,-0.136 0.272,-0.188c0.111,-0.047 0.227,-0.07 0.352,-0.07Zm0,0.101c-0.222,0 -0.406,0.074 -0.547,0.22c-0.145,0.145 -0.217,0.335 -0.217,0.57c0,0.229 0.076,0.416 0.233,0.562c0.136,0.146 0.313,0.219 0.531,0.219c0.224,0 0.404,-0.073 0.54,-0.219c0.14,-0.146 0.211,-0.333 0.211,-0.562c0,-0.115 -0.018,-0.219 -0.055,-0.313c-0.036,-0.099 -0.089,-0.185 -0.156,-0.257c-0.062,-0.068 -0.143,-0.118 -0.243,-0.149c-0.093,-0.047 -0.193,-0.071 -0.297,-0.071Zm-0.241,1.242l-0.025,0c-0.029,0 -0.045,-0.02 -0.045,-0.062l0,-0.781c0,-0.021 0.004,-0.042 0.016,-0.062c0.013,-0.011 0.031,-0.016 0.054,-0.016l0.272,0c0.105,0 0.187,0.026 0.243,0.078c0.064,0.042 0.093,0.107 0.093,0.195c0,0.079 -0.025,0.143 -0.077,0.196c-0.057,0.046 -0.138,0.07 -0.243,0.07l0.313,0.328l0,0.015c-0.011,0.006 -0.018,0.014 -0.022,0.024c-0.016,0.011 -0.032,0.015 -0.048,0.015c-0.027,0 -0.052,-0.017 -0.079,-0.054l-0.281,-0.312l-0.116,0l0,0.304c0,0.042 -0.018,0.062 -0.055,0.062Zm0.055,-0.819l0,0.351l0.217,0c0.073,0 0.125,-0.015 0.157,-0.047c0.041,-0.031 0.063,-0.076 0.063,-0.133c0,-0.114 -0.079,-0.171 -0.235,-0.171l-0.202,0Zm-53.517,-21.439c3.158,-1.425 6.009,-3.361 8.352,-5.907c2.342,-2.546 4.175,-5.397 5.5,-8.758c1.324,-3.362 1.935,-6.824 1.935,-10.491c0,-3.768 -0.611,-7.231 -1.935,-10.592c-1.325,-3.361 -3.158,-6.212 -5.5,-8.759c-2.343,-2.546 -5.194,-4.481 -8.352,-6.009c-3.259,-1.527 -6.823,-2.24 -10.591,-2.24c-3.769,0 -7.333,0.713 -10.491,2.24c-3.259,1.528 -6.009,3.463 -8.351,6.009c-2.343,2.547 -4.176,5.398 -5.5,8.759c-1.324,3.361 -2.037,6.824 -2.037,10.592c0,3.667 0.611,7.129 1.935,10.491c1.324,3.361 3.157,6.212 5.5,8.758c2.342,2.546 5.092,4.482 8.351,5.907c3.157,1.528 6.722,2.241 10.593,2.241c3.768,0 7.332,-0.713 10.591,-2.241Zm-174.662,-14.767c1.324,3.361 3.157,6.212 5.499,8.758c2.343,2.547 5.195,4.584 8.453,6.009c3.26,1.528 6.824,2.241 10.694,2.241c2.547,0 4.991,-0.306 7.333,-1.018c2.343,-0.612 4.482,-1.528 6.417,-2.75c1.935,-1.12 3.564,-2.546 4.99,-4.176c1.426,-1.528 2.546,-3.259 3.259,-5.194l-6.722,-2.037c-0.407,1.222 -1.12,2.342 -2.138,3.463c-1.019,1.12 -2.241,2.037 -3.667,2.851c-1.426,0.917 -2.954,1.528 -4.583,2.037c-1.732,0.51 -3.361,0.713 -5.092,0.713c-2.648,0 -5.092,-0.611 -7.435,-1.731c-2.342,-1.121 -4.481,-2.648 -6.213,-4.583c-1.731,-1.935 -3.157,-4.176 -4.176,-6.824c-1.018,-2.648 -1.527,-5.5 -1.527,-8.453c0,-3.056 0.509,-5.907 1.527,-8.454c0.917,-2.546 2.343,-4.786 4.075,-6.721c1.731,-1.834 3.768,-3.26 6.11,-4.38c2.342,-1.12 4.787,-1.629 7.537,-1.629c3.259,0 6.213,0.713 8.861,2.24c2.647,1.528 4.685,3.667 6.212,6.417l6.722,-2.139c-1.935,-3.87 -4.685,-6.926 -8.453,-9.268c-3.769,-2.241 -8.148,-3.361 -13.138,-3.361c-3.972,0 -7.537,0.713 -10.796,2.139c-3.259,1.425 -6.009,3.361 -8.352,5.805c-2.342,2.546 -4.175,5.398 -5.499,8.759c-1.324,3.361 -1.935,6.823 -1.935,10.592c0,3.768 0.713,7.333 2.037,10.694Zm-157.962,-37.073l0,29.943c0,12.018 4.074,18.027 12.324,18.027c2.037,0 4.073,-0.306 6.009,-1.018c1.935,-0.713 3.768,-1.63 5.499,-2.954c1.63,-1.324 3.158,-2.852 4.482,-4.583c1.324,-1.731 2.342,-3.768 3.157,-6.009l0,-33.406l6.925,0l0,44.1c0,1.935 0.815,2.852 2.546,2.852l0,6.111c-1.324,0.203 -2.342,0.305 -2.851,0.305c-1.528,0 -2.852,-0.509 -3.972,-1.426c-1.12,-0.916 -1.732,-2.139 -1.732,-3.564l0,-7.333c-2.342,4.175 -5.499,7.333 -9.471,9.573c-3.972,2.343 -8.25,3.463 -12.935,3.463c-5.602,0 -9.777,-1.935 -12.629,-5.805c-2.852,-3.768 -4.277,-9.472 -4.277,-17.11l0,-31.166l6.925,0Zm240.965,51.433c3.768,-1.731 6.721,-4.074 9.064,-7.231l0.203,4.176c0.102,1.629 0.815,2.851 1.936,3.666c1.12,0.815 2.342,1.222 3.666,1.222c0.305,0 0.713,0 1.222,-0.102c0.509,0 1.018,0 1.528,-0.101l0,-6.111c-1.63,0 -2.445,-0.917 -2.445,-2.852l0,-23.934c0,-6.62 -1.935,-11.712 -5.703,-15.481c-3.768,-3.768 -8.962,-5.601 -15.379,-5.601c-3.564,0 -6.925,0.611 -10.185,1.731c-3.258,1.121 -6.62,2.852 -10.082,5.194l2.444,4.584c2.953,-2.037 5.805,-3.565 8.657,-4.685c2.75,-1.121 5.602,-1.63 8.453,-1.63c4.583,0 8.148,1.324 10.898,4.074c2.648,2.75 3.972,6.518 3.972,11.203l0,4.787c-2.139,-0.917 -4.685,-1.528 -7.435,-2.037c-2.75,-0.51 -5.5,-0.713 -8.148,-0.713c-3.361,0 -6.314,0.407 -9.064,1.12c-2.75,0.815 -5.194,1.936 -7.129,3.361c-1.935,1.426 -3.463,3.157 -4.583,5.093c-1.121,2.037 -1.63,4.277 -1.63,6.721c0,2.139 0.408,4.278 1.324,6.213c0.917,1.935 2.139,3.667 3.768,5.194c1.528,1.528 3.463,2.648 5.704,3.463c2.24,0.916 4.685,1.324 7.435,1.324c3.87,0 7.74,-0.917 11.509,-2.648Zm-181.996,-72.718l0,32.387c2.342,-3.565 5.194,-6.518 8.555,-8.759c3.361,-2.139 7.231,-3.259 11.712,-3.259c3.667,0 7.028,0.815 9.981,2.342c2.954,1.528 5.5,3.667 7.639,6.213c2.037,2.648 3.666,5.601 4.787,8.861c1.12,3.361 1.629,6.721 1.629,10.184c0,3.768 -0.611,7.231 -1.935,10.592c-1.324,3.361 -3.055,6.213 -5.296,8.657c-2.343,2.546 -4.991,4.482 -8.046,5.907c-3.157,1.528 -6.416,2.241 -9.981,2.241c-4.176,0 -7.944,-1.018 -11.509,-3.157c-3.564,-2.139 -6.314,-4.787 -8.249,-8.148l0,10.287l-6.213,0l0,-74.348l6.926,0Zm61.006,0l0,62.33c0,1.935 0.509,3.463 1.629,4.583c1.121,1.12 2.648,1.731 4.584,1.731c0.712,0 1.629,-0.102 2.648,-0.305c1.018,-0.204 1.934,-0.509 2.851,-0.815l1.222,5.601c-1.324,0.509 -2.851,1.019 -4.685,1.324c-1.935,0.306 -3.564,0.509 -4.888,0.509c-3.157,0 -5.703,-0.916 -7.537,-2.749c-1.833,-1.731 -2.75,-4.278 -2.75,-7.537l0,-64.672l6.926,0Zm157.858,3.36l0,17.925l12.221,0l0,5.5l-12.221,0l0,36.054c0.102,1.935 0.815,3.361 2.037,4.277c1.222,0.917 2.648,1.426 4.379,1.426c1.935,0 3.667,-0.305 5.195,-1.018c1.527,-0.611 2.444,-1.019 2.851,-1.324l1.833,5.602c-0.407,0.203 -1.018,0.509 -1.731,0.814c-0.815,0.306 -1.731,0.713 -2.75,1.018c-1.018,0.306 -2.139,0.612 -3.463,0.917c-1.324,0.306 -2.648,0.407 -4.073,0.407c-1.528,0 -2.954,-0.203 -4.278,-0.61c-1.324,-0.408 -2.546,-1.019 -3.565,-1.936c-1.018,-0.814 -1.833,-1.833 -2.444,-3.157c-0.611,-1.324 -0.917,-2.75 -0.917,-4.481l0,-37.989l-7.333,0l0,-5.5l7.333,0l0,-17.925l6.926,0Zm105.001,17.62c0.509,0 1.018,0 1.324,0.102l0,6.314c-4.686,0.102 -8.759,1.426 -12.222,3.87c-3.463,2.445 -5.907,5.806 -7.333,10.083l0,32.999l-6.925,0l0,-53.063l6.518,0l0,12.731c1.833,-3.768 4.277,-6.823 7.231,-9.37c2.953,-2.444 6.213,-3.666 9.675,-3.666l1.732,0Zm-243.204,0.305l6.926,0l0,53.063l-6.926,0l0,-53.063Zm85.752,47.767c-1.63,-0.713 -2.954,-1.528 -4.074,-2.649c-1.121,-1.12 -2.037,-2.342 -2.547,-3.666c-0.509,-1.324 -0.814,-2.75 -0.814,-4.176c0,-3.564 1.528,-6.314 4.685,-8.351c3.055,-1.935 7.027,-2.953 12.018,-2.953c2.342,0 4.786,0.203 7.333,0.712c2.546,0.51 4.888,1.12 7.231,2.037l0,8.657c0,0.612 -0.204,1.222 -0.509,1.935c-0.306,0.713 -0.713,1.426 -1.222,2.037c-1.732,2.343 -4.177,4.074 -7.13,5.398c-3.055,1.324 -6.111,2.037 -9.166,2.037c-2.24,0 -4.176,-0.306 -5.805,-1.018Zm-274.878,-0.815c-1.935,-0.713 -3.667,-1.63 -5.194,-2.852c-1.63,-1.12 -3.056,-2.546 -4.278,-4.176c-1.324,-1.629 -2.342,-3.361 -3.157,-5.296l0,-16.295c0.305,-1.732 1.018,-3.463 2.24,-5.093c1.121,-1.527 2.547,-2.953 4.278,-4.175c1.731,-1.121 3.463,-2.139 5.398,-2.852c1.935,-0.713 3.768,-1.018 5.5,-1.018c2.749,0 5.397,0.611 7.842,1.731c2.342,1.12 4.481,2.75 6.212,4.685c1.732,1.935 3.158,4.278 4.176,6.824c1.019,2.546 1.528,5.296 1.528,8.147c0,2.75 -0.408,5.296 -1.324,7.843c-0.917,2.546 -2.139,4.888 -3.769,6.823c-1.731,2.037 -3.666,3.667 -6.008,4.889c-2.343,1.222 -4.889,1.833 -7.741,1.833c-1.935,0 -3.87,-0.306 -5.703,-1.018Zm120.381,0c-1.935,-0.713 -3.666,-1.63 -5.398,-2.75c-1.731,-1.12 -3.157,-2.546 -4.277,-4.176c-1.223,-1.527 -1.936,-3.259 -2.241,-5.092l0,-16.499c0.815,-1.732 1.833,-3.463 3.157,-5.093c1.222,-1.527 2.648,-2.953 4.176,-4.175c1.527,-1.223 3.259,-2.241 5.092,-2.954c1.834,-0.713 3.768,-1.018 5.907,-1.018c2.75,0 5.296,0.611 7.639,1.731c2.342,1.222 4.277,2.852 6.009,4.787c1.629,2.037 2.954,4.379 3.87,6.925c0.916,2.547 1.324,5.296 1.324,8.046c0,2.75 -0.509,5.297 -1.426,7.843c-1.019,2.546 -2.343,4.888 -4.074,6.823c-1.731,2.037 -3.87,3.667 -6.212,4.787c-2.445,1.222 -5.093,1.833 -8.046,1.833c-1.732,0 -3.565,-0.306 -5.5,-1.018Zm233.426,-28.619c1.019,-2.546 2.444,-4.889 4.176,-6.824c1.731,-1.935 3.768,-3.565 6.11,-4.685c2.343,-1.12 4.787,-1.629 7.436,-1.629c2.648,0 5.092,0.509 7.434,1.629c2.343,1.12 4.379,2.648 6.111,4.583c1.731,1.935 3.157,4.278 4.176,6.824c1.018,2.648 1.527,5.398 1.527,8.351c0,2.954 -0.509,5.806 -1.527,8.352c-1.019,2.546 -2.445,4.787 -4.176,6.722c-1.732,1.935 -3.768,3.462 -6.111,4.583c-2.342,1.12 -4.888,1.731 -7.537,1.731c-2.648,0 -5.092,-0.509 -7.434,-1.63c-2.343,-1.12 -4.38,-2.647 -6.111,-4.582c-1.731,-1.936 -3.157,-4.176 -4.074,-6.722c-1.019,-2.546 -1.528,-5.296 -1.528,-8.25c0,-2.953 0.509,-5.805 1.528,-8.453Zm93.432,-11.166l-1.64,0l0,-6.891l-2.64,0l0,-1.366l6.921,0l0,1.366l-2.641,0l0,6.891Zm4.704,0l-1.578,0l0.608,-8.257l2.459,0l1.426,4.037c0.182,0.638 0.334,1.245 0.547,2.095l0.03,0c0.212,-0.759 0.394,-1.457 0.578,-2.064l1.427,-4.068l2.368,0l0.637,8.257l-1.64,0l-0.304,-4.857c-0.029,-0.637 -0.029,-1.427 -0.061,-2.307l-0.091,0c-0.21,0.729 -0.453,1.7 -0.698,2.459l-1.486,4.584l-1.701,0l-1.488,-4.706c-0.152,-0.637 -0.395,-1.608 -0.576,-2.337l-0.091,0c0,0.759 -0.03,1.548 -0.061,2.307l-0.305,4.857Zm-262.817,-28.452l6.926,0l0,10.184l-6.926,0l0,-10.184Z"/></svg>